<svg xmlns="http://www.w3.org/2000/svg" width="46.394" height="35.104" viewBox="0 0 46.394 35.104">
  <g id="data-synchronization" transform="translate(-1.01 -8.794)">
    <path id="Path_19243" data-name="Path 19243" d="M8.142,40.238c4.279.291,8.6.438,12.884.438,1.225,0,2.447-.016,3.665-.04-.066,2.1.927,2.739,2.926,2.792l14.509.46c3.536.109,5.322-.66,5.276-4.337l-.076-10.488c0-1.777-.611-2.814-3.331-2.708l-3.392.118q.208-5.51.42-11.025h0c.133-3.692-.593-6.1-4.32-6.408a.155.155,0,0,0-.1-.009c-.419-.03-.849-.041-1.285-.043-30.911-.2-30.244-.5-31.932.624-2.006,1.342-2.1,4.082-1.984,5.595a107.224,107.224,0,0,1-.191,14.525q-.087,1.476-.168,2.958c-.25,4.834.891,7.112,7.1,7.548ZM27.894,42.53l.187.187-.363-.012Zm11.446.545L37.6,43.019a.163.163,0,0,0-.016-.149l1.229-1.229.936.936-.357.357A.171.171,0,0,0,39.34,43.074ZM37.1,43l-1.974-.062,1.017-1.017.956.956A.163.163,0,0,0,37.1,43Zm-3.833-.268a.174.174,0,0,0,.075-.03l.518-.518.737.737-1.476-.047a.144.144,0,0,0,.146-.141Zm-.194.14-1.629-.051.758-.758.768.768a.185.185,0,0,0,.1.042Zm-3.51-.112.578-.578.616.616Zm12.589.4-2.4-.076L40,42.833l.149.149a.179.179,0,0,0,.128.053.181.181,0,0,0,.128-.31l-.149-.149,1-1,.734.734-.417.418a.181.181,0,0,0,.256.257l.418-.418.608.608C42.617,43.176,42.382,43.171,42.148,43.163Zm1.78-1.254-.9.9c-.005.005,0,.013-.008.019l-.518-.517.916-.916Zm-.255-.769,1.178-1.179.512.512-1.178,1.179Zm-.384,2.035a.185.185,0,0,0-.039-.094c.01-.007.023,0,.032-.013l.9-.9.742.742A5.125,5.125,0,0,1,43.29,43.176Zm3.346-9.3-.032-.032.032-.032Zm.015,2.077-.168-.168.166-.166Zm.017,2.362-.307-.307.3-.3ZM44.021,27.079c2.464-.084,2.579.777,2.579,1.987l.031,4.239-.284.284-.317-.317a.182.182,0,1,0-.257.257l.317.317-.438.438a.182.182,0,1,0,.257.257l.438-.438.292.292.007.87a.171.171,0,0,0-.184.03l-.236.236-.074-.074a.182.182,0,0,0-.257.257l.074.074-.559.559a.182.182,0,0,0,.257.257l.559-.559.418.418s.007,0,.011,0l.005.733-.555.554-.6-.6a.181.181,0,0,0-.256.257l.6.6-.6.6a.181.181,0,0,0,.256.257l.6-.6.36.36a.149.149,0,0,0,.206.021l.007.912c.024,1.908-.4,2.323-.4,2.323a2.378,2.378,0,0,1-1,.873s0-.005,0-.007l-.838-.838,1.179-1.179.519.519a.182.182,0,0,0,.257-.257l-.519-.519.175-.175a.182.182,0,0,0-.257-.257l-.175.175-.512-.512.014-.015a.182.182,0,0,0-.257-.257l-.015.015-.518-.518a.181.181,0,0,0-.256.257l.518.518-1.178,1.179-1.145-1.145a.182.182,0,1,0-.257.257l1.145,1.145-.916.916-.734-.734.62-.62a.182.182,0,0,0-.257-.257l-.62.619-.8-.8a.181.181,0,1,0-.256.257l.8.8-1,1-.936-.936.351-.351a.182.182,0,1,0-.257-.257l-.351.351-.3-.3a.182.182,0,1,0-.257.257l.3.3-1.22,1.22-.936-.936.88-.88a.182.182,0,0,0-.257-.257l-.88.88-.256-.256a.182.182,0,1,0-.257.257l.256.256-1.017,1.017-.754-.754,1.175-1.175a.182.182,0,0,0-.257-.257l-1.175,1.175-.2-.2a.181.181,0,1,0-.256.257l.2.2-.511.512-.633-.633,1-1a.182.182,0,0,0-.257-.257l-1,1-.033-.033a.181.181,0,0,0-.256.257l.033.033-.835.835-.714-.714.967-.968a.181.181,0,0,0-.257-.256l-.967.967-.115-.115a.182.182,0,0,0-.257.257l.115.115-.819.819-.458-.015s0-.007,0-.009l-.451-.451L29.7,40.721a.182.182,0,0,0-.257-.257l-1.554,1.554-.054-.054a.182.182,0,0,0-.257.257l.054.054-.409.409c-1.641-.108-1.9-.8-1.789-2.458l.08-1.092c.578-7.8.236-8.459,1.751-9.23,1.8-.917,4.114-.01,6.162.059a4.7,4.7,0,0,0,3.576-1.173,11.6,11.6,0,0,1,.982-1.089,3.914,3.914,0,0,1,2.234-.488h.007ZM40.233,13.162l-.733-.733.459-.459a5.615,5.615,0,0,1,.274,1.192Zm-3.88-3.423a7.5,7.5,0,0,1,1.181.154l-.6.6-.667-.668Zm2.675.832,0,0,0,0Zm-3.382-.853.108.108-.9.9L34,9.867l.162-.162,1.151.007.334,0Zm-3.663-.026-.3.3-.3-.3Zm-3.057.983L27.917,9.665l1.98.013-.954.953C28.931,10.642,28.933,10.66,28.925,10.673Zm-5.509-.764.273-.273,1.7.012-1.118,1.118Zm-.257-.257-.02-.02h.04Zm4.233.009-.706.706-.715-.715ZM18.743,9.6l.848.006-.421.421Zm2.518.017-.284.284-.289-.289Zm-17.474.594C5.149,9.307,6.058,9.52,18.006,9.6l-.1.1a.181.181,0,0,0,.256.257l.21-.21,1.111,1.111a.181.181,0,0,0,.256-.256l-.313-.313.675-.674h.07l.548.548-.5.5a.181.181,0,0,0,.257.256l.5-.5.758.758a.182.182,0,0,0,.257-.257l-.758-.758.537-.537.854.006.28.28-.407.407a.182.182,0,0,0,.257.257l.407-.407,1.159,1.159a.182.182,0,1,0,.257-.257l-.046-.046,1.15-1.15.751.751-.122.12a.181.181,0,0,0,.256.257l.122-.122.49.49a.181.181,0,1,0,.257-.256l-.49-.49.709-.709,1.571,1.571a.182.182,0,1,0,.257-.257l-.323-.323c.014-.008.03-.006.043-.017l1.207-1.206.461,0,.561.561-.442.442a.182.182,0,1,0,.257.257l.442-.442.821.821a.182.182,0,1,0,.257-.257l-.821-.821.55-.55.828.005.167.167-.681.681a.181.181,0,1,0,.256.257l.681-.681.856.856-.121.121a.181.181,0,0,0,.256.257l.121-.121.091.091a.181.181,0,0,0,.256-.257l-.091-.091.9-.9.667.667-.059.059a.181.181,0,1,0,.257.256L36.934,11l.212.212a.181.181,0,0,0,.257-.256l-.212-.212L37.94,10l.007,0,.5.5-.9.9a.182.182,0,1,0,.257.257l.9-.9.836.836a.182.182,0,0,0,.257,0c.005-.005,0-.012.007-.017.005.011.009.022.014.033l-.568.568a.18.18,0,0,0-.255.255l-.4.4a.182.182,0,0,0,.257.257l.4-.4.751.752-.733.733a.177.177,0,0,0-.048.115l-.347-.347a.181.181,0,1,0-.257.256l1.229,1.229a.182.182,0,1,0,.257-.257l-.694-.694a.175.175,0,0,0,.115-.048l.733-.733.035.036c.035.562.03,1.136.01,1.692-.005.125-.009.25-.014.375-9.131-2-17.564-.9-38.077.716-.083-1.539-.551-4.87,1.581-6.3ZM1.765,32.727c.268-5.04.695-10.267.478-15.492,20.553-1.617,28.978-2.71,38.012-.706-.128,3.316-.253,6.63-.379,9.968a4,4,0,0,0-2.324.626,9.2,9.2,0,0,0-1.059,1.157,4.166,4.166,0,0,1-3.033.956c-2.039-.071-4.451-1.033-6.516.019-1.941.988-1.631,2.787-1.779,4.836-.725.105-2.339,1.241-5.187.357-2-.62-3.821-2.13-5.567-4.611l2.378,1.049a.362.362,0,1,0,.291-.663l-3.827-1.687a.362.362,0,0,0-.508.313l-.175,3.51a.362.362,0,0,0,.344.38h.017a.362.362,0,0,0,.362-.344l.149-2.984.571.252a.358.358,0,0,0-.13.057.362.362,0,0,0-.088.5c1.848,2.636,3.8,4.244,5.966,4.916a7.864,7.864,0,0,0,5.345-.265q-.153,2.1-.308,4.2l-.062.835c-5.48.109-11.043-.025-16.543-.4C2.33,39.1,1.54,37.1,1.765,32.727Z" fill="#0084b4"/>
    <path id="Path_19244" data-name="Path 19244" d="M9.9,14.68a2.119,2.119,0,0,0,.685-.851,1.546,1.546,0,0,0-.606-1.811,1.758,1.758,0,0,0-1.88.012h0a2.267,2.267,0,0,0-.868,2.442C7.572,15.427,8.786,15.57,9.9,14.68ZM8.487,12.643a1.038,1.038,0,0,1,1.093-.018.83.83,0,0,1,.328.943,1.448,1.448,0,0,1-.462.546c-.5.4-1.328.687-1.534.114A1.568,1.568,0,0,1,8.487,12.643Z" transform="translate(-1.684 -0.813)" fill="#0084b4"/>
    <path id="Path_19245" data-name="Path 19245" d="M16.479,14.432a1.677,1.677,0,0,0,.137-1.278c-.287-1.417-1.759-1.494-2.757-.477a1.469,1.469,0,0,0-.366,1.291C13.717,15.616,16,15.157,16.479,14.432Zm-2.1-1.246c.567-.576,1.36-.726,1.529.112a1.065,1.065,0,0,1-.033.736c-.146.222-.513.284-.889.319-.584.051-.725-.136-.773-.483A.743.743,0,0,1,14.377,13.185Z" transform="translate(-3.426 -0.879)" fill="#0084b4"/>
    <path id="Path_19246" data-name="Path 19246" d="M21.092,14.178a1.6,1.6,0,0,0,.59-1.441c-.142-1.179-1.388-1.391-2.286-.779a1.33,1.33,0,0,0-.645,1.157A1.468,1.468,0,0,0,21.092,14.178ZM19.8,12.558c1.063-.721,1.571.489.846,1.046a.744.744,0,0,1-1.175-.525A.667.667,0,0,1,19.8,12.558Z" transform="translate(-4.876 -0.778)" fill="#0084b4"/>
    <path id="Path_19247" data-name="Path 19247" d="M18.075,29.649a.362.362,0,0,0,.468-.207A8.086,8.086,0,0,1,31.991,26.9a.363.363,0,0,0,.534-.491A8.812,8.812,0,0,0,17.869,29.18.361.361,0,0,0,18.075,29.649Z" transform="translate(-4.627 -4.067)" fill="#0084b4"/>
    <path id="Path_19248" data-name="Path 19248" d="M33.863,27.481a.363.363,0,0,0-.075.721l3.556.37h.038a.363.363,0,0,0,.363-.363l-.011-3.645a.363.363,0,0,0-.363-.362h0a.363.363,0,0,0-.362.363l.009,3.242Z" transform="translate(-8.921 -4.236)" fill="#0084b4"/>
    <path id="Path_19249" data-name="Path 19249" d="M48.5,38.218a2.71,2.71,0,0,1-.359.473l-.13-.216a.181.181,0,1,0-.31.187l.166.276a3.64,3.64,0,0,1-1,.614c-.015-.089-.041-.177-.047-.267a.169.169,0,0,0-.194-.166.18.18,0,0,0-.166.2,3.2,3.2,0,0,0,.061.347,3.571,3.571,0,0,1-1.09.226l-.2-.454a.181.181,0,0,0-.333.144l.141.328a14.362,14.362,0,0,1-1.677-.046,2.027,2.027,0,0,1-.162-.709.181.181,0,0,0-.181-.175h-.007a.181.181,0,0,0-.174.188,2.377,2.377,0,0,0,.134.666,14.517,14.517,0,0,0-2.4-.051L40.3,39.2a.183.183,0,0,0-.241-.086.181.181,0,0,0-.086.241l.22.461a3.543,3.543,0,0,0-1.437.466L38.47,39.9a.182.182,0,0,0-.292.215l.289.392a1.644,1.644,0,0,0-.553,1.787.181.181,0,1,0,.339-.127,1.306,1.306,0,0,1,.409-1.355c.005-.005.012-.009.018-.014l.375.509a.182.182,0,0,0,.292-.215l-.374-.508a3.319,3.319,0,0,1,1.386-.413l.191.4a.181.181,0,1,0,.327-.156l-.136-.284a16.762,16.762,0,0,1,2.387.08h.008a2.376,2.376,0,0,0,.428.582.181.181,0,0,0,.252-.261,2.02,2.02,0,0,1-.248-.291,12.772,12.772,0,0,0,1.626.025,2.4,2.4,0,0,0,.339.652.424.424,0,0,0,.285.113.338.338,0,0,0,.174-.046.189.189,0,0,0,.049-.259.2.2,0,0,0-.264-.077,2.241,2.241,0,0,1-.2-.413,5.056,5.056,0,0,0,1.027-.2,3.317,3.317,0,0,0,.186.485.181.181,0,1,0,.324-.163,2.935,2.935,0,0,1-.17-.442,4.134,4.134,0,0,0,1.122-.642l.142.236a.181.181,0,0,0,.31-.187l-.179-.3a3.078,3.078,0,0,0,.477-.619.182.182,0,0,0-.315-.181Z" transform="translate(-10.122 -8.063)" fill="#0084b4"/>
    <path id="Path_19250" data-name="Path 19250" d="M3.79,34.9a.181.181,0,0,0-.068.356l.727.139-.071,1.038a.181.181,0,0,0,.168.194h.012a.181.181,0,0,0,.181-.169l.068-.994.523.1A.181.181,0,0,0,5.4,35.2L4.832,35.1l.139-2.016.568.016h.005a.181.181,0,0,0,.005-.363L5,32.717l.183-2.679.948-.051a.181.181,0,1,0-.02-.362l-.9.049.168-2.459a6.635,6.635,0,0,1,1.112.212.191.191,0,0,0,.049.007.181.181,0,0,0,.049-.356A7.057,7.057,0,0,0,5.4,26.854l.139-2.032a.181.181,0,0,0-.168-.194.2.2,0,0,0-.193.168l-.138,2.034a6.974,6.974,0,0,0-.888.005.181.181,0,0,0,.028.362,6.555,6.555,0,0,1,.835-.005l-.172,2.5-.8.044a.181.181,0,0,0,.01.362h.01l.76-.041-.181,2.648-.811-.022H3.818a.181.181,0,0,0-.005.363l.8.022-.134,1.958Z" transform="translate(-0.705 -4.353)" fill="#0084b4"/>
  </g>
</svg>
