<svg xmlns="http://www.w3.org/2000/svg" width="37.512" height="40.419" viewBox="0 0 37.512 40.419">
  <g id="cyber-security" transform="translate(-6.262 -4.19)">
    <path id="Path_19211" data-name="Path 19211" d="M43.312,9.737c-.107-4.4-1.557-5.537-5.754-5.547-26.134.1-26.932-.257-29.259,1.27A4.25,4.25,0,0,0,6.416,9.774c.149.724.092,14.428-.128,19.261-.318,7.329,2.255,9.057,9.533,8.893a15.287,15.287,0,0,0,1.1,1.694,12.3,12.3,0,0,0,8.492,4.985h.029c.7,0,5.746-2.237,9.157-7.089,3.049-.072,5.6-.105,7.631-2.14,2.125-2.377,1.6-4.346,1.079-25.642ZM8.683,6.047c2.127-1.4,2.871-1.054,28.878-1.156h.163c5,0,4.818,2.074,4.934,6.861L7.189,12.13c-.015-1.37-.043-2.311-.089-2.511A3.58,3.58,0,0,1,8.683,6.047Zm4.933,18.694a.172.172,0,0,0,.074.031.175.175,0,0,0,.124-.051l.619-.619.476.476-.773.773-.321-.321a.165.165,0,0,0-.192-.023C13.62,24.918,13.618,24.83,13.616,24.741Zm-.007-.311q-.009-.586-.01-1.162l.586.586Zm.02.911.258.258-.239.239C13.643,25.671,13.635,25.505,13.63,25.34Zm.309,3.093a.176.176,0,0,0,.248,0l.229-.229.731.73a.169.169,0,0,0,.086.036l-.557.557-.823-.823,0,0q-.06-.585-.1-1.169l.423.423-.229.229A.175.175,0,0,0,13.938,28.433ZM13.708,27c-.014-.23-.028-.459-.039-.689l.466-.466,1.04,1.04c.012.012.029.01.043.018l-.8.8Zm1.153,6.921.549.549-.264.264C15.049,34.467,14.948,34.2,14.861,33.923ZM25.4,43.9a11.616,11.616,0,0,1-7.913-4.7,14.794,14.794,0,0,1-1.723-2.948l.01-.01c.083.084.229.264.337.264a.176.176,0,0,0,.124-.3l-.213-.213L17,35.012a.175.175,0,1,0-.248-.248l-.981.981-.4-.4c-.033-.083-.062-.169-.094-.253l.378-.378.324.324a.176.176,0,1,0,.248-.248l-.324-.324.89-.889a.176.176,0,0,0-.248-.248l-.889.889-.643-.643,1.362-1.362a.176.176,0,1,0-.248-.248l-1.362,1.362-.092-.093q-.289-1.051-.492-2.187l.354.354-.043.043a.176.176,0,0,0,.248.248l.043-.043.6.6A.176.176,0,0,0,15.633,32l-.6-.6,1.282-1.282a.176.176,0,0,0-.248-.248l-1.282,1.282-.716-.716c-.01-.062-.025-.12-.034-.182-.049-.335-.09-.671-.13-1.007l.52.52-.266.266a.176.176,0,0,0,.248.248l.266-.266.349.349a.175.175,0,1,0,.248-.248l-.349-.349,1.33-1.33a.176.176,0,1,0-.248-.248l-.575.575a.165.165,0,0,0-.036-.086l-.73-.73,1.959-1.959a.176.176,0,1,0-.248-.248l-.932.932c-.008-.014-.006-.031-.018-.043l-1.04-1.04.773-.773.524.524a.176.176,0,0,0,.248-.248l-.524-.524.388-.388a.176.176,0,1,0-.248-.248l-.39.391-.476-.476.777-.777a.176.176,0,1,0-.248-.248l-.777.777-.619-.619a.17.17,0,0,0-.216-.013c0-.73.012-1.442.025-2.132l.765.765-.711.711a.176.176,0,0,0,.248.248l.711-.711,1.15,1.15a.176.176,0,0,0,.248-.248l-1.15-1.15.574-.575a.175.175,0,0,0,0-.248s-.008,0-.011,0c.231-.012.462-.034.693-.054.008.02.008.042.024.058l1.008,1.009-.154.154a.176.176,0,0,0,.248.248l.154-.154.187.187a.176.176,0,0,0,.248-.248l-.187-.187.922-.922.551.551-.118.117a.176.176,0,0,0,.248.248l.117-.117.37.37a.176.176,0,1,0,.248-.248l-.37-.37,1.051-1.052.718.718a.175.175,0,0,0,.248-.248l-1.031-1.031c.41-.132.814-.275,1.216-.432a.167.167,0,0,0,.043.145l.451.451-.636.639a.175.175,0,1,0,.248.248l.637-.637.522.522a.175.175,0,1,0,.248-.248l-.522-.522.718-.718a.17.17,0,0,0,.046-.138l.56.56L24,19.833a.176.176,0,0,0,.248.248l.154-.154.359.359a.176.176,0,1,0,.248-.248l-.359-.359.921-.922.779.779a.175.175,0,1,0,.248-.248l-1.46-1.461a.167.167,0,0,0-.082-.034c.16-.1.327-.184.484-.286a18.975,18.975,0,0,0,12.638,3.832C38.691,31.083,34.356,40.487,25.4,43.9ZM14.079,20.8c.372.008.744.015,1.118,0l-.559.559Zm6.169-.872s0,0,0,0l.192.192-1.051,1.052-.551-.551.129-.13a.171.171,0,0,0,.008-.227c.428-.1.851-.21,1.272-.337Zm-1.657.447-.014-.014.037-.008Zm-.379.069a.168.168,0,0,0,.033.08l.1.1-.922.922-.852-.852c.548-.061,1.1-.142,1.641-.248Zm6.678-2.37.433.433-.921.922-.823-.823q.651-.325,1.276-.694A.163.163,0,0,0,24.89,18.075Zm-1.639.692s0,.01.006.013l.182.182a.17.17,0,0,0-.138.046l-.718.718-.451-.451s-.012,0-.017-.007C22.5,19.112,22.877,18.946,23.251,18.767Zm11.84,18.039c3.986-6.172,4.35-15.5,3.644-16.11a.346.346,0,0,0-.259-.083,18.223,18.223,0,0,1-12.7-3.812.349.349,0,0,0-.411-.017A19.929,19.929,0,0,1,13.3,20.079a.351.351,0,0,0-.374.342c-.12,5.615-.06,11.82,2.508,16.814-7.1.122-8.723-1.911-8.45-8.17.141-3.094.239-11.542.207-16.234l35.48-.377.4,16.394c.14,6.266-1.581,7.807-7.982,7.959Z" fill="#fff"/>
    <path id="Path_19212" data-name="Path 19212" d="M11.25,11.986a2.062,2.062,0,0,0,.8.156c1.881,0,3.15-2.181,1.966-3.456a2.259,2.259,0,0,0-2.163-.52,2,2,0,0,0-.6,3.82Zm-.152-.965.111.111A1.1,1.1,0,0,1,11.1,11.022Zm.871.41a.657.657,0,0,0-.169-.2l.272-.272.412.412A1.658,1.658,0,0,1,11.97,11.432Zm.766-1.139.231.231-.415.415-.231-.231Zm.106.936-.042-.042.415-.415c.092.092.068.067.13.088A1.564,1.564,0,0,1,12.842,11.229Zm.621-.706.222-.222a1.488,1.488,0,0,1-.15.313C13.5,10.567,13.569,10.629,13.463,10.523Zm.285-.5a.148.148,0,0,0-.213-.046c.121-.176-.159-.368-.324-.533a1.4,1.4,0,0,0,.267-.3A1.072,1.072,0,0,1,13.748,10.028ZM10.8,9.779h0a1.872,1.872,0,0,1,2.417-.822c-.071.064-.182.177-.249.244-.192-.193-.441.055-.248.248l-.053.053a.175.175,0,0,0,.248.248l.053-.053c.119.119.33.393.486.344l-.234.234c-.2-.2-.472-.586-.653-.4a.166.166,0,0,0-.043.144l-.445.445c-.27-.27-.515-.019-.248.248l-.272.272-.472-.472a.162.162,0,0,0-.26.028,1.237,1.237,0,0,1-.026-.757Z" transform="translate(-1.131 -1.165)" fill="#fff"/>
    <path id="Path_19213" data-name="Path 19213" d="M18.689,11.985c2.031.859,4.2-1.752,2.763-3.3a2.259,2.259,0,0,0-2.163-.52A2,2,0,0,0,18.689,11.985Zm.34-.629.139-.139.216.216A1.357,1.357,0,0,1,19.029,11.356Zm1.457-.95-.34.34-.254-.254.34-.34Zm-.571.6c-.067.147.048.294.216.216.1.1.017.016.064.054a1.759,1.759,0,0,1-.5.139c.073-.166-.14-.308-.283-.45l.229-.229Zm.549.109a.17.17,0,0,0-.069-.124l.375-.375a.171.171,0,0,0,.177-.177,1.445,1.445,0,0,0,.2-.222A1.592,1.592,0,0,1,20.464,11.118Zm-2.23-1.34h0a1.878,1.878,0,0,1,2.193-.913l-.1.1a.175.175,0,1,0-.248.248c-.194.194.053.443.248.248.087.087.476.516.589.516a.176.176,0,0,0,.124-.3l-.465-.465.194-.194a1.045,1.045,0,0,1,.41,1.089.169.169,0,0,0-.292-.105l-.153.153-.265-.265a.161.161,0,0,0-.225-.226c-.113-.113-.213-.218-.34-.092s-.026.222.081.328l-.34.34c-.142-.142-.262-.3-.4-.157s.015.263.157.4l-.229.229c-.168-.169-.345-.421-.507-.26s.09.339.26.507l-.214.213a1.353,1.353,0,0,1-.473-1.4Z" transform="translate(-3.351 -1.165)" fill="#fff"/>
    <path id="Path_19214" data-name="Path 19214" d="M25.9,11.986c2.043.859,4.2-1.757,2.763-3.3a2.259,2.259,0,0,0-2.163-.52A2,2,0,0,0,25.9,11.986Zm.008-.812.281-.281.534.534A1.111,1.111,0,0,1,25.907,11.175Zm-.464-1.4h0a1.831,1.831,0,0,1,2.7-.615c.58.625.187,1.858-1,2.2l-.716-.716.322-.323.305.305c-.12.12-.238.222-.106.354a.175.175,0,0,0,.248,0l.106-.106c.074.074.13.154.227.154a.176.176,0,0,0,.124-.3l-.1-.1.3-.3c.079.079.152.18.253.18a.173.173,0,0,0,.124-.051.175.175,0,0,0,0-.248l-.891-.89a.168.168,0,0,0-.271.193l-.883.883-.088-.089a.176.176,0,1,0-.248.248l.088.088-.276.276A1.334,1.334,0,0,1,25.443,9.779Zm1.86,0,.305.305-.3.3-.305-.305Z" transform="translate(-5.504 -1.165)" fill="#fff"/>
    <path id="Path_19215" data-name="Path 19215" d="M34.028,34.82c-.342.316-4.082,3.752-4.406,4.087-1.752,1.8-1.585-.142-2.821-.506a2.013,2.013,0,0,0-3.04,2.321C24,41.723,25.9,45,28.026,45.4c1.606.307,3.086-.7,4.291-1.808a28.063,28.063,0,0,0,5.032-6.144,4.545,4.545,0,0,0,.7-1.673C38.288,34.154,36.721,32.333,34.028,34.82ZM24.443,40.56c-.21-.874.162-1.766,1.148-1.766,1.961,0,2.059,3.15,4.534.6.1-.1.2-.2.291-.29,4.114-3.795,5.432-5.454,6.551-4.618a1.251,1.251,0,0,1,.39,1.185,2.093,2.093,0,0,1-.06.248l-.255-.255.143-.143a.176.176,0,0,0-.248-.248l-.143.143-.14-.14a.176.176,0,0,0-.248.248l.14.14-.589.589c-.017.008-.036.007-.051.021s-.013.034-.021.051l-.272.272a.176.176,0,0,0,.248.248l.184-.184.148.147-.022.022a.176.176,0,0,0,.248.248l.023-.023.2.2c-.137.224-.287.438-.431.658l-.442-.442.024-.024a.176.176,0,0,0-.248-.248l-.112.112c-.017.008-.036.007-.051.021s-.013.034-.021.051l-1.571,1.571-.07-.07a.175.175,0,0,0-.248.248l.07.07-.683.683a.154.154,0,0,0-.2.2l-.238.238a.176.176,0,0,0,.248.248l.215-.215.819.819c-.2.228-.405.458-.617.679l-.278-.278.273-.273a.176.176,0,1,0-.248-.248l-.273.273-.419-.419a.176.176,0,0,0-.248.248l.419.419-1.071,1.073L30.582,42a.168.168,0,0,0-.095-.039l.483-.483a.175.175,0,0,0-.248-.248l-1.512,1.512c-.017.008-.036.007-.051.021s-.013.034-.021.051l-.661.661-.36-.36a.176.176,0,1,0-.248.248l.36.36-.749.749a8.524,8.524,0,0,1-3.037-3.908Zm12.386-3.611-.139-.139.452-.452A6.036,6.036,0,0,1,36.829,36.949Zm.113-.887-.5.5-.148-.148.5-.5Zm-1.333,2.747-.137-.136.5-.5.039.039C35.876,38.411,35.749,38.614,35.609,38.809Zm-.849,1.115-.269-.269.734-.734.17.17c-.207.281-.418.56-.635.833Zm-.83.988-.8-.8.66-.66.207.206-.14.14a.175.175,0,0,0,.248.248l.14-.14.3.3c-.2.242-.409.471-.614.706Zm1.587-3.193.207.207-.5.5-.207-.207Zm-.748.748.207.207-.734.734-.207-.206Zm-4.5,5.15-.72-.72.748-.748a.172.172,0,0,0,.039.095l.653.653Zm-.754.755a.171.171,0,0,0-.041.1s0-.009,0-.013l-.74-.74.573-.573.72.72Zm-1.357.339a2.369,2.369,0,0,1-.328-.095l.65-.65.716.716a2.56,2.56,0,0,1-1.037.029Zm3.687-1.635a7.83,7.83,0,0,1-1.875,1.338l.334-.334s.006,0,.008,0a.175.175,0,0,0,.124-.051.168.168,0,0,0,.048-.132l.754-.754.117.117a.176.176,0,0,0,.248-.248l-.117-.117,1.072-1.072.276.276c-.325.329-.648.66-.99.974Z" transform="translate(-5.2 -8.779)" fill="#fff"/>
  </g>
</svg>
