<svg id="list" xmlns="http://www.w3.org/2000/svg" width="27.499" height="40.027" viewBox="0 0 27.499 40.027">
  <g id="Group_930" data-name="Group 930">
    <path id="Path_19216" data-name="Path 19216" d="M20.116,42.068l12.877.228c4.953.089,6.1-1.557,6.141-5.546l.254-25.818C39.418,8.416,38.7,7.289,36.25,7.4l-2.6.088a2.446,2.446,0,0,0-1.626-1.474,11.36,11.36,0,0,0-3.066-.292,2.32,2.32,0,0,0-.634-2.39,4.168,4.168,0,0,0-4.663-.6,2.736,2.736,0,0,0-1.422,2.8,4.208,4.208,0,0,0-3.81,2.123c-4.222-.091-5.85.924-6.161,5.585a181.828,181.828,0,0,0-.124,21.31c.305,5.834,2.224,7.412,7.972,7.52Zm8.053-.718-.653-.653.824-.824.776.776-.91.91h-.029A.159.159,0,0,0,28.169,41.35Zm3.343-.461L31.1,41.3a.163.163,0,0,0,.231.231l.412-.412.512.512L30.507,41.6c-.007-.011,0-.025-.014-.035l-.916-.916.848-.848Zm-.857-1.317.967-.967,1.088,1.087-.967.967Zm-.6,2.02-1.4-.025.688-.688ZM33,41.644l-.283-.005-.75-.75.967-.967L34,40.985l-.22.22a.163.163,0,1,0,.231.231l.22-.22.391.391c-.539.042-1.088.048-1.62.038Zm3.321-2.983-.871.871L34.391,38.47l.871-.871Zm-1.1,1.1-.991.991-1.064-1.063.991-.991Zm-.181,1.8-.58-.58.991-.991L36.6,41.14A5.134,5.134,0,0,1,35.043,41.565ZM38.73,10.407l-.145-.145.132-.132C38.724,10.222,38.727,10.314,38.73,10.407Zm-.022,3.437-.1-.1.085-.085c.012-.012.011-.03.018-.044Zm0,.456,0,.238a.158.158,0,0,0-.124.044l-.31.31-.492-.492a.137.137,0,0,0,.191-.016l.41-.41Zm-.007.622,0,.4-.2-.2ZM22.643,6.167a.326.326,0,0,0,.307-.414A2.083,2.083,0,0,1,23.983,3.3a3.521,3.521,0,0,1,3.881.494,1.649,1.649,0,0,1,.317,2.08.326.326,0,0,0,.273.484,13.252,13.252,0,0,1,3.369.277c1.811.589,1.492,2.374.284,3.161-.964.614-2.262.668-4.2.759l-.023-.023,1.148-1.148.635.635a.153.153,0,0,0,.119.046.15.15,0,0,0,.257.066L31,9.174l.339.339-.178.178a.163.163,0,0,0,.231.231l1.155-1.155a.163.163,0,0,0-.231-.231l-.007.007L31.971,8.2l.321-.321.436.436a.163.163,0,1,0,.231-.231l-.845-.845a.163.163,0,1,0-.231.231l.178.178-.321.321-.281-.281a.163.163,0,1,0-.231.231l.281.281L31,8.714l-.649-.649.277-.277a.163.163,0,0,0-.231-.231l-.277.277-.006-.006a.163.163,0,1,0-.231.231l.006.006-.856.856L28.6,8.485a.163.163,0,0,0-.231.231l.436.436L27.655,10.3l-.528-.528.993-.993a.163.163,0,1,0-.231-.231l-.993.993-.718-.718.094-.094a.163.163,0,0,0-.231-.231l-.106.106a.148.148,0,0,0-.206.206l-.66.66-.4-.4a.163.163,0,0,0-.231.231l.4.4-.781.781a.157.157,0,0,0-.042.13c-2.854-.046-3.8-.014-4.341-.358-1.574-.994-1.11-4,2.968-4.088ZM25.95,9.053l.718.718-.609.609c-.016.016-.016.037-.023.057L25.3,9.7Zm-.192,1.566c-.455.005-.912,0-1.369,0l.683-.683Zm.537-.014.6-.6.574.574c-.39.015-.784.021-1.178.03Zm3.614-.8c0-.006,0-.014-.008-.02l-.635-.635.856-.856.649.649Zm1.66-.522-.339-.339.511-.511.339.339Zm-18.652,4c.274-4.095,1.463-5.051,5.3-4.981a2.6,2.6,0,0,0,1.116,2.505c1.282.81,8.938.416,10.443.285a5.858,5.858,0,0,0,2.685-.748h0a3.147,3.147,0,0,0,.732-.679l.38.38-.563.563a.163.163,0,0,0,.231.231l.563-.563.2.2a.163.163,0,1,0,.231-.231l-.2-.2.718-.718a.163.163,0,1,0-.231-.231l-.718.718-.424-.424a2.566,2.566,0,0,0,.376-1.254l.1,0,.967.967a.163.163,0,0,0,.231-.231l-.752-.752L35.5,8.075l.72.72-.629.629a.163.163,0,0,0,.231.231l.629-.629.388.388a.163.163,0,1,0,.231-.231l-.388-.388.2-.2a.163.163,0,1,0-.231-.231l-.2.2-.5-.5.33-.011C37.387,8,38.46,8.007,38.688,9.857a.154.154,0,0,0-.18.021l-.153.153-.476-.476a.163.163,0,0,0-.231.231l.476.476-.695.695a.163.163,0,1,0,.231.231l.695-.695.382.382c0,.017,0,.034,0,.05h0l-.015,1.531-.29-.29.175-.175a.163.163,0,0,0-.231-.231l-.175.175-.5-.5a.163.163,0,0,0-.231.231l.5.5-.586.586a.163.163,0,1,0,.231.231L38.2,12.4l.516.516-.005.563c-.008-.016-.007-.035-.02-.048a.163.163,0,0,0-.231,0l-.085.085-.454-.454a.163.163,0,0,0-.231.231l.454.454-.41.41a.156.156,0,0,0-.016.191l-.016-.016a.163.163,0,1,0-.231.231l.563.563-.432.432a.163.163,0,0,0,.231.231l.432-.432a3.176,3.176,0,0,0,.422.389L38.5,35.293l-.892-.892a.163.163,0,1,0-.231.231l1.117,1.118-.01.994c-.018,1.867-.159,3.369-1.586,4.232l-1.212-1.212.871-.871.584.584-.531.531a.163.163,0,1,0,.231.231l.531-.531.2.2a.163.163,0,1,0,.231-.231l-.2-.2.389-.389a.163.163,0,0,0-.231-.231l-.389.389-.584-.584.389-.389a.163.163,0,0,0-.231-.231l-.389.389-.462-.462a.156.156,0,0,0,.074-.031l.963-.963,1.012,1.012a.163.163,0,0,0,.231-.231L37.36,36.745l.257-.257a.163.163,0,1,0-.231-.231l-.257.257-.436-.436a.163.163,0,0,0-.231.231l.436.436-.963.963a.153.153,0,0,0-.031.074l-.414-.414.07-.07a.163.163,0,1,0-.231-.231l-.07.07-.242-.244a.163.163,0,0,0-.231.231l.244.244-.871.871-.7-.7.659-.659a.163.163,0,0,0-.231-.231l-.659.659-.363-.364a.163.163,0,0,0-.231.231l.364.364-.46.46a.163.163,0,1,0,.231.231l.46-.46.7.7-.991.991-1.088-1.087.119-.119a.163.163,0,0,0-.231-.231l-.119.119L31.473,38a.163.163,0,0,0-.231.231l.149.148-.967.967-.531-.531a.163.163,0,1,0-.231.231l.531.531-.847.847-.776-.776.2-.2a.163.163,0,1,0-.231-.231l-1.254,1.254-.364-.364a.163.163,0,1,0-.231.231l.364.364-.556.556a.163.163,0,1,0,.231.231l.556-.556.627.627-7.785-.137c-5.358-.1-7.045-1.368-7.334-6.9a181.509,181.509,0,0,1,.124-21.233Z" transform="translate(-11.89 -2.273)" fill="#ff8700"/>
  </g>
  <g id="Group_931" data-name="Group 931" transform="translate(3.99 24.043)">
    <path id="Path_19217" data-name="Path 19217" d="M18.342,40h.019l2.726-.158a.326.326,0,1,0-.038-.65l-2.726.158a.326.326,0,0,0,.019.651Z" transform="translate(-18.016 -39.186)" fill="#ff8700"/>
  </g>
  <g id="Group_932" data-name="Group 932" transform="translate(9.694 24.392)">
    <path id="Path_19218" data-name="Path 19218" d="M27.1,40.374l13.455.113h0a.326.326,0,0,0,0-.651L27.1,39.723h0a.326.326,0,0,0,0,.651Z" transform="translate(-26.773 -39.723)" fill="#ff8700"/>
  </g>
  <g id="Group_933" data-name="Group 933" transform="translate(3.99 21.612)">
    <path id="Path_19219" data-name="Path 19219" d="M18.342,36.263h.019l2.726-.158a.326.326,0,1,0-.038-.65l-2.726.158a.326.326,0,0,0,.019.651Z" transform="translate(-18.016 -35.454)" fill="#ff8700"/>
  </g>
  <g id="Group_934" data-name="Group 934" transform="translate(9.694 21.961)">
    <path id="Path_19220" data-name="Path 19220" d="M27.1,36.642l13.455.114h0a.326.326,0,0,0,0-.651L27.1,35.991h0a.326.326,0,0,0,0,.651Z" transform="translate(-26.773 -35.991)" fill="#ff8700"/>
  </g>
  <g id="Group_935" data-name="Group 935" transform="translate(3.99 19.181)">
    <path id="Path_19221" data-name="Path 19221" d="M18.342,32.531h.019l2.726-.158a.326.326,0,1,0-.038-.65l-2.726.158a.326.326,0,0,0,.019.651Z" transform="translate(-18.016 -31.722)" fill="#ff8700"/>
  </g>
  <g id="Group_936" data-name="Group 936" transform="translate(9.694 19.531)">
    <path id="Path_19222" data-name="Path 19222" d="M27.1,32.91l13.455.114h0a.326.326,0,0,0,0-.651L27.1,32.259h0a.326.326,0,0,0,0,.651Z" transform="translate(-26.773 -32.259)" fill="#ff8700"/>
  </g>
  <g id="Group_937" data-name="Group 937" transform="translate(3.99 16.75)">
    <path id="Path_19223" data-name="Path 19223" d="M18.342,28.8h.019l2.726-.158a.326.326,0,1,0-.038-.65l-2.726.158a.326.326,0,0,0,.019.651Z" transform="translate(-18.016 -27.99)" fill="#ff8700"/>
  </g>
  <g id="Group_938" data-name="Group 938" transform="translate(9.694 17.1)">
    <path id="Path_19224" data-name="Path 19224" d="M27.1,29.178l13.455.114h0a.326.326,0,0,0,0-.651L27.1,28.527h0a.326.326,0,0,0,0,.651Z" transform="translate(-26.773 -28.527)" fill="#ff8700"/>
  </g>
  <g id="Group_939" data-name="Group 939" transform="translate(3.99 14.319)">
    <path id="Path_19225" data-name="Path 19225" d="M18.342,25.068h.019l2.726-.158a.326.326,0,1,0-.038-.65l-2.726.158a.326.326,0,0,0,.019.651Z" transform="translate(-18.016 -24.258)" fill="#ff8700"/>
  </g>
  <g id="Group_940" data-name="Group 940" transform="translate(9.694 14.669)">
    <path id="Path_19226" data-name="Path 19226" d="M27.1,25.446l13.455.114h0a.326.326,0,0,0,0-.651L27.1,24.8h0a.326.326,0,0,0,0,.651Z" transform="translate(-26.773 -24.795)" fill="#ff8700"/>
  </g>
  <g id="Group_941" data-name="Group 941" transform="translate(3.99 26.473)">
    <path id="Path_19227" data-name="Path 19227" d="M18.342,43.727h.019l2.726-.158a.326.326,0,0,0-.038-.65l-2.726.158a.326.326,0,0,0,.019.651Z" transform="translate(-18.016 -42.917)" fill="#ff8700"/>
  </g>
  <g id="Group_942" data-name="Group 942" transform="translate(9.694 26.823)">
    <path id="Path_19228" data-name="Path 19228" d="M27.1,44.106l13.455.113h0a.326.326,0,0,0,0-.651L27.1,43.455h0a.326.326,0,0,0,0,.651Z" transform="translate(-26.773 -43.455)" fill="#ff8700"/>
  </g>
  <g id="Group_943" data-name="Group 943" transform="translate(8.743 6.218)">
    <path id="Path_19229" data-name="Path 19229" d="M25.712,13.358l-.212.212a.163.163,0,0,0,.231.231l.212-.212.185.185a.163.163,0,0,0,.231-.231l-.185-.185.321-.321.815.815a.162.162,0,0,0,.115.048c.017,0,.031-.014.046-.02l.005,0a.162.162,0,0,0,.115-.048l.574-.574.446.446a.163.163,0,0,0,.231-.231L28.4,13.03l.644-.644a.163.163,0,1,0-.231-.231l-.644.644-.367-.367a.163.163,0,1,0-.231.231l.367.367-.494.494-.718-.718.708-.708a.163.163,0,1,0-.231-.231l-.782.782c-.02.008-.042.008-.059.024s-.016.038-.024.059l-.4.4-.35-.35a.163.163,0,0,0-.231.231Z" transform="translate(-25.313 -11.819)" fill="#ff8700"/>
  </g>
  <g id="Group_944" data-name="Group 944" transform="translate(11.86 1.113)">
    <path id="Path_19230" data-name="Path 19230" d="M30.746,5.828l-.437.438a.163.163,0,1,0,.231.231l.437-.438.132.132a.163.163,0,1,0,.231-.231l-.133-.133.305-.306.308.308a.163.163,0,1,0,.231-.231l-.29-.29a.34.34,0,0,1,.175-.068h0a.588.588,0,0,1,.363.222.163.163,0,1,0,.234-.227.854.854,0,0,0-.6-.322h0a.681.681,0,0,0-.41.159l-.335-.335.478-.478a.163.163,0,1,0-.231-.231l-.478.478L30.9,4.444a.163.163,0,1,0-.231.231l.064.064-.306.306L30.377,5a.163.163,0,0,0-.231.231Zm.214-.858.322.322-.306.305-.322-.322Z" transform="translate(-30.098 -3.981)" fill="#ff8700"/>
  </g>
  <g id="Group_945" data-name="Group 945" transform="translate(7.582 31.076)">
    <path id="Path_19231" data-name="Path 19231" d="M23.579,52.708a.163.163,0,0,0,.231,0l.691-.691.347.347a.163.163,0,0,0,.231-.231l-.347-.347.432-.432.259.259a.163.163,0,1,0,.231-.231l-.259-.259.86-.86a.163.163,0,0,0-.231-.231l-.86.86-.375-.375a.163.163,0,0,0-.231.231l.375.375-.432.432-.691-.691a.163.163,0,1,0-.231.231l.691.691-.691.691A.164.164,0,0,0,23.579,52.708Z" transform="translate(-23.531 -49.986)" fill="#ff8700"/>
  </g>
</svg>
