<svg id="web-analytics" xmlns="http://www.w3.org/2000/svg" width="39.478" height="40.469" viewBox="0 0 39.478 40.469">
  <path id="Path_19232" data-name="Path 19232" d="M8.657,42.449l24.43.17c6.152.056,8.907-1.53,9.008-9.607l.286-22.477c.07-5.395-1.359-7.581-7.944-7.754L10.767,2.158c-6.725-.167-7.919,2.579-7.513,9.18.239,3.943-.239,4.556-.337,17.169-.02,2.661-.011,5.358.029,8.019.072,4.8,1.7,5.894,5.712,5.922ZM10.75,2.814l23.67.622c6.247.165,7.37,2.1,7.306,7.089l-.035,2.8-37.708-.31c-.012-.551-.038-1.119-.075-1.719-.4-6.446.747-8.639,6.842-8.485ZM3.982,13.674l37.7.31L41.44,33c-.1,7.643-2.5,9.019-8.348,8.96l-24.43-.17c-3.629-.026-4.995-.832-5.061-5.277-.186-12.463.346-21.109.381-22.843Z" transform="translate(-2.906 -2.151)" fill="#ff8096"/>
  <path id="Path_19233" data-name="Path 19233" d="M19.255,13.044a2.866,2.866,0,0,0,3.487-1.282,2.922,2.922,0,0,0,.238-2.1c-.268-1.024-1.347-2.319-2.658-2.081a3.1,3.1,0,0,0-2.748,2.151,2.866,2.866,0,0,0,1.681,3.312Zm3.091-3.216a2.265,2.265,0,0,1-.182,1.625,2.114,2.114,0,0,1-1.043.92v0l-.863-.863.72-.72.256.256-.581.581a.164.164,0,1,0,.232.232l.581-.581.186.186a.164.164,0,0,0,.232-.232l-.186-.186.334-.334a.146.146,0,0,0,.2-.012.159.159,0,0,0,.012-.2l.009-.009a.164.164,0,0,0-.232-.232h0l-.72-.72.586-.586a2.549,2.549,0,0,1,.457.882Zm-4.138.07a2.562,2.562,0,0,1,2.23-1.672,1.433,1.433,0,0,1,1.229.476l-.6.6-.093-.092a.164.164,0,0,0-.232.232l.153.153a.112.112,0,0,0,.112.112l.781.78-.325.325-.256-.256.117-.117a.164.164,0,0,0-.232-.232l-.117.117-.139-.139a.164.164,0,0,0-.232.232l.139.139-.72.72-.162-.163a.164.164,0,0,0-.232.232l.163.163-.488.488a.164.164,0,0,0,.232.232l.488-.488.751.751a2.1,2.1,0,0,1-1.282-.055A2.223,2.223,0,0,1,18.209,9.9Z" transform="translate(-7.924 -4.01)" fill="#ff8096"/>
  <path id="Path_19234" data-name="Path 19234" d="M29.49,13.044a2.628,2.628,0,0,0,.972.181,2.814,2.814,0,0,0,2.753-3.564c-.268-1.024-1.346-2.317-2.659-2.081a3.1,3.1,0,0,0-2.748,2.151,2.87,2.87,0,0,0,1.682,3.313Zm.24-.61a1.913,1.913,0,0,1-.393-.217l.641-.641.3.3a.154.154,0,0,0,.028.166.127.127,0,0,0,.166.028l.391.391a.157.157,0,0,0,.1.043,2.082,2.082,0,0,1-1.235-.066Zm1.7-2.516.381.381-.488.488-.279-.279.378-.378a.161.161,0,0,0,.008-.213Zm-.618.822.279.279-.6.6-.279-.279ZM28.444,9.9a2.564,2.564,0,0,1,2.23-1.672c.869-.161,1.705.826,1.908,1.6a2.121,2.121,0,0,1-1.544,2.653c.018-.008.04-.008.055-.023a.164.164,0,0,0,0-.232l-.372-.372.6-.6.461.461a.164.164,0,0,0,.232-.232l-.461-.461.488-.488.289.289a.164.164,0,1,0,.232-.232l-.289-.289.053-.053a.164.164,0,1,0-.232-.232l-.053.053L31.279,9.3a.164.164,0,1,0-.232.232l.358.357a.16.16,0,0,0-.213.008l-.437.437a.158.158,0,0,0-.079.033.153.153,0,0,0-.033.079l-.664.664-.464-.464a.164.164,0,0,0-.232.232l.464.464-.65.65c-.007.007,0,.016-.01.024A2.227,2.227,0,0,1,28.444,9.9Z" transform="translate(-11.445 -4.009)" fill="#ff8096"/>
  <path id="Path_19235" data-name="Path 19235" d="M23.486,34.339l3.737-4.187c1.855-2.075,2.575,1.292,4.342,1.888,1.316.447,2.607-.548,3.31-1.534A12.607,12.607,0,0,1,36.8,27.855l-.179,2.039a.328.328,0,0,0,.3.356h.03a.327.327,0,0,0,.326-.3l.28-3.187a.328.328,0,0,0-.388-.351l-2.954.562a.328.328,0,1,0,.123.644l2.528-.481-.01.109a.324.324,0,0,0-.371.014,11.614,11.614,0,0,0-2.146,2.863c-.617.866-1.651,1.6-2.566,1.293-1.379-.465-2.681-4.349-5.041-1.7L23,33.9a.328.328,0,1,0,.489.436Z" transform="translate(-9.79 -10.497)" fill="#ff8096"/>
  <path id="Path_19236" data-name="Path 19236" d="M13.686,53.649h2.692a.328.328,0,0,0,.328-.323l.01-.67c.013-.819.026-1.637.035-2.455.007-.6.008-1.381-.043-2.113a.328.328,0,0,0-.327-.305H13.6a.328.328,0,0,0-.327.312c-.077,1.589,0,3.541.092,5.243A.326.326,0,0,0,13.686,53.649Zm.933-5.051.276.276c-.005,0-.012,0-.017.007l-.309.309-.289-.289a.151.151,0,0,0,.062-.026Zm-.281.824L14,49.754l-.111-.111c0-.226,0-.44.007-.658ZM13.98,52.6c-.01-.214-.02-.425-.03-.647l.338.338Zm-.067-1.737c-.007-.243-.009-.482-.013-.724a.157.157,0,0,0,.047.02l.544.544s0,0,.007,0l-.371.371Zm2.181-.672q-.013,1.226-.035,2.452l-.005.348h-2l.468-.468.037.037a.164.164,0,1,0,.232-.232l-.037-.037.353-.353a.164.164,0,1,0-.232-.232l-.353.353-.468-.468c.014-.008.032-.006.045-.018l.031-.031.191.191a.164.164,0,0,0,.232-.232l-.191-.191.662-.662a.164.164,0,0,0-.232-.232l-.063.063s0,0,0-.007l-.487-.487.346-.346a.134.134,0,0,0,.185-.02.156.156,0,0,0,.02-.185l.323-.323s0-.012.007-.017l.038.038a.164.164,0,1,0,.232-.232l-.464-.464h.469l.34.34a.164.164,0,0,0,.232-.232l-.108-.108h.215c.031.619.03,1.252.024,1.757Zm-1.78-1.755-.2.2a.151.151,0,0,0-.026.062l-.176-.176c0-.029,0-.061,0-.09Z" transform="translate(-6.461 -17.852)" fill="#ff8096"/>
  <path id="Path_19237" data-name="Path 19237" d="M20.184,52h2.691a.328.328,0,0,0,.328-.325l.012-1.248q.02-1.879.033-3.758c.007-.958.007-2.206-.043-3.358A.329.329,0,0,0,22.878,43H20.093a.328.328,0,0,0-.328.318c-.075,2.511,0,5.639.091,8.367a.328.328,0,0,0,.327.318Zm.909-8.347.07.07-.283.283-.354-.354Zm-.445.586-.251.251c0-.167.006-.329.009-.492Zm-.182,5.88.391.39-.369.369C20.48,50.63,20.472,50.377,20.465,50.122Zm-.035-1.385.045.045-.043.043,0-.089Zm-.009-.382c0-.168-.006-.336-.009-.5,0,0,0,.012.007.016a.164.164,0,0,0,.232,0l.117-.117.369.369-.431.431C20.615,48.457,20.535,48.343,20.422,48.354Zm0-.72c-.007.007,0,.017-.01.024,0-.091,0-.182,0-.274l.132.132ZM20.392,45.9l.17.17-.169.169C20.392,46.125,20.392,46.013,20.392,45.9Zm2.2.767q-.013,1.877-.033,3.755l-.009.924H20.5c0-.033,0-.067,0-.1,0,0,.008.005.012.005a.163.163,0,0,0,.116-.048l.471-.471a.143.143,0,0,0,.2-.014.158.158,0,0,0,.014-.2l.654-.654a.164.164,0,0,0-.232-.232l-.644.644-.608-.607c-.007-.008-.018-.005-.027-.011l-.01-.383.264-.264.463.463a.164.164,0,0,0,.232-.232l-.463-.463.485-.485c.085-.016.108-.039.124-.124l.11-.11a.164.164,0,1,0-.232-.232l-.056.056L21,47.518l.725-.725a.164.164,0,0,0-.232-.232l-.725.725-.338-.338c-.009-.009-.021-.007-.031-.013,0-.11,0-.219,0-.327.007,0,.011.007.018.007a.163.163,0,0,0,.116-.048l.264-.264.321.321a.164.164,0,1,0,.232-.232l-.321-.321.6-.6a.164.164,0,0,0-.232-.232l-.6.6-.4-.4c0-.24,0-.476,0-.71h0a.164.164,0,0,0,.232,0l.253-.253.415.415a.164.164,0,1,0,.232-.232l-.415-.415.283-.283.253.253a.164.164,0,0,0,.232-.232l-.255-.255a.153.153,0,0,0,.028-.068h.91c.037,1.049.037,2.149.031,3.014Z" transform="translate(-8.696 -16.206)" fill="#ff8096"/>
  <path id="Path_19238" data-name="Path 19238" d="M29.872,47.782H27.087a.328.328,0,0,0-.327.312c-.077,1.589,0,3.541.092,5.243a.328.328,0,0,0,.327.312H29.87a.328.328,0,0,0,.328-.323c.021-1.307.036-2.2.045-3.126.007-.595.008-1.373-.043-2.112a.329.329,0,0,0-.328-.306Zm-1.324.656H28.7l-.076.076Zm-.584,0-.322.322-.24-.24h0c0-.026,0-.056,0-.082Zm-.043,4.526a.156.156,0,0,0,.07.029H27.53l.21-.21Zm-.449-.377c0-.025,0-.051,0-.077l.04.04Zm-.077-2.31.035.035a.165.165,0,0,0-.033.08c0-.038,0-.076,0-.115Zm.081,1.777c-.008-.008-.02-.006-.029-.012-.007-.15-.011-.3-.017-.454l.049.049a.159.159,0,0,0,.01.207.162.162,0,0,0,.116.048.166.166,0,0,0,.091-.037l.165.165a.163.163,0,0,0,.116.048c.009,0,.016-.009.024-.01l-.261.261Zm-.062-.945c-.007-.233-.012-.462-.017-.7a.16.16,0,0,0,.043.1.147.147,0,0,0,.207.01l.4.4a.156.156,0,0,0,.088.036L27.7,51.4Zm.037-1.239a.15.15,0,0,0-.062-.026c0-.3,0-.584,0-.868l.1.1c.007.013.006.03.017.041s.028.009.041.017l.518.518-.418.418Zm2.136.323c-.009.905-.024,1.812-.041,2.8H28.083a.156.156,0,0,0,.07-.029.163.163,0,0,0,0-.232l-.181-.181.743-.743a.164.164,0,0,0-.232-.232l-.352.352a.155.155,0,0,0-.038-.14l-.158-.157.757-.756a.164.164,0,1,0-.232-.232l-.144.144a.161.161,0,0,0-.036-.088l-.394-.394.43-.43a.139.139,0,0,0,.193-.016.159.159,0,0,0,.009-.211.148.148,0,0,0-.2-.211l-.446-.446.382-.382.718.718a.164.164,0,0,0,.232-.232l-.35-.35.1-.1.264.264a.164.164,0,1,0,.232-.232l-.241-.241h.353C29.594,49.06,29.593,49.691,29.587,50.193Z" transform="translate(-11.103 -17.852)" fill="#ff8096"/>
  <path id="Path_19239" data-name="Path 19239" d="M36.864,39.48H34.079a.329.329,0,0,0-.328.32c-.075,3.226,0,7.2.092,10.672a.328.328,0,0,0,.328.319h2.691a.328.328,0,0,0,.328-.325l.008-.985q.021-2.7.038-5.406c.007-1.208.008-2.784-.043-4.279A.331.331,0,0,0,36.864,39.48ZM34.481,49.718l0-.174.089.089Zm.317.147.272.272h-.543Zm-.352-1.652.046.046-.044.044ZM34.389,44.8l-.006-.646A.163.163,0,0,0,34.5,44.1l.2-.2.341.341a.159.159,0,0,0,.1.041c-.02.008-.042.008-.058.024l-.59.591Zm-.009-1.04c0-.059,0-.116,0-.175l.088.088Zm0-2.035c0-.209,0-.418.005-.623a.151.151,0,0,0,.026.062.164.164,0,0,0,.232,0l.264-.264.4.4a.161.161,0,0,0-.106.044l-.6.6Zm.031-.794c-.016.016-.016.038-.024.058q0-.3.009-.6l.279.279Zm.2-.79H35.2l-.294.294Zm1.965,3.936q-.014,2.7-.038,5.4l-.005.659h-1.2a.159.159,0,0,0-.01-.207l-.3-.3.657-.657a.164.164,0,1,0-.232-.232L34.8,49.4l-.333-.333-.008-.335c.012-.007.028-.005.039-.016l.228-.228.2.2a.164.164,0,1,0,.232-.232l-.2-.2.853-.853a.164.164,0,1,0-.232-.232l-.852.852-.288-.288-.012-.617.19-.19.476.477a.164.164,0,1,0,.232-.232l-.477-.477.554-.554a.164.164,0,1,0-.232-.232l-.554.554-.2-.2q-.007-.4-.011-.809l.093-.093.436.436a.164.164,0,1,0,.232-.232l-.436-.436.59-.591a.164.164,0,0,0,0-.232.159.159,0,0,0-.1-.041c.02-.008.043-.008.058-.024a.164.164,0,0,0,0-.232l-.341-.341L35.7,42.9a.164.164,0,0,0-.232-.232l-.769.769-.228-.228a.16.16,0,0,0-.093-.039c0-.205,0-.413,0-.615h0a.163.163,0,0,0,.116-.048l.1-.1.394.394a.164.164,0,1,0,.232-.232l-.394-.394.6-.6a.159.159,0,0,0,.012-.2l.005,0a.164.164,0,0,0,.116-.28l-.427-.427.351-.351a.162.162,0,0,0,.04-.1l.515.515a.164.164,0,0,0,.232-.232l-.362-.362h.632c.041,1.393.039,2.825.033,3.941Z" transform="translate(-13.509 -14.995)" fill="#ff8096"/>
  <path id="Path_19240" data-name="Path 19240" d="M40.668,47.459c-.077,1.714,0,3.822.092,5.659a.328.328,0,0,0,.327.312h2.692a.328.328,0,0,0,.328-.323c.022-1.559.036-2.41.045-3.376.007-.646.008-1.49-.043-2.277a.328.328,0,0,0-.327-.307H41A.327.327,0,0,0,40.668,47.459Zm.689,2.841a.164.164,0,0,0,.232,0l.043-.043.32.32-.382.382-.247-.247c-.007-.262-.013-.519-.018-.781l.094.1-.043.043A.163.163,0,0,0,41.357,50.3Zm.55,2.474h-.264l.1-.1C41.8,52.731,41.827,52.771,41.906,52.774Zm-.516-.213c0-.081-.007-.167-.01-.25l.131.131Zm-.054-1.372h0v0Zm2.158-1.466c-.01,1.13-.028,2.171-.041,3.05H41.918a.161.161,0,0,0,.11-.277l-.054-.054.544-.544a.164.164,0,1,0-.232-.232l-.544.544-.375-.375s-.005,0-.008,0c0-.077-.007-.15-.01-.228a.146.146,0,0,0,.066-.028l.154-.154.267.267a.164.164,0,0,0,.232-.232l-.267-.267.753-.753a.164.164,0,0,0-.232-.232l-.139.139-.32-.32.582-.582a.164.164,0,0,0-.232-.232l-.582.582-.333-.333c0-.387,0-.76,0-1.127l.305.305-.252.252a.164.164,0,1,0,.232.232l.252-.252.181.181a.164.164,0,1,0,.232-.232l-.181-.181.21-.21.2.2a.164.164,0,1,0,.232-.232l-.2-.2.007-.007a.164.164,0,0,0-.232-.232l-.007.007-.163-.163h.395l.437.437A.164.164,0,0,0,43.181,48l-.205-.205h.492c.035.679.033,1.374.028,1.925ZM41.667,47.8c0,.006,0,.014.008.019l.375.375-.21.21-.531-.531c0-.024,0-.051,0-.074h.356Z" transform="translate(-15.888 -17.633)" fill="#ff8096"/>
  <path id="Path_19241" data-name="Path 19241" d="M47.854,49.888h2.691a.328.328,0,0,0,.328-.326l.01-1.591q.02-2.916.035-5.834c.007-1.412.008-3.253-.043-4.967a.327.327,0,0,0-.328-.318H47.763a.328.328,0,0,0-.328.321c-.075,3.746,0,8.368.092,12.394a.327.327,0,0,0,.327.321ZM48.9,37.507l-.4.4-.4-.4Zm-.6.663a.16.16,0,0,0,.047.12.154.154,0,0,0,.12.047l.341.341-.394.394-.228-.228a.163.163,0,0,0-.119-.047c0-.289.007-.569.011-.85Zm-.239,1.568c.02.008.036.024.057.024a.164.164,0,0,0,.116-.048l.178-.178.369.369-.468.468-.256-.256C48.062,39.988,48.062,39.864,48.063,39.738Zm0-.316c0-.078,0-.158,0-.236l.117.117Zm0,1.158.024.024-.024.024Zm.093,7.628.274.274-.263.263C48.161,48.567,48.158,48.389,48.154,48.208Zm-.026-1.327.043.042-.041.041C48.13,46.937,48.129,46.91,48.128,46.881Zm-.009-.472-.006-.363.436-.436.468.468-.615.615Zm-.014-.82c0-.145,0-.29-.007-.435,0,0,0,.006,0,.009l.215.215Zm2.157-3.455q-.013,2.917-.035,5.832l-.009,1.265H48.175c0-.018,0-.035,0-.053s.028-.005.037-.016l.449-.448.13.13a.164.164,0,0,0,.232-.232l-.13-.13,1.061-1.061a.164.164,0,1,0-.232-.232L48.66,48.25l-.516-.516c0-.153-.006-.308-.009-.462.02.008.037.024.058.024a.162.162,0,0,0,.116-.048l.093-.093.351.351a.164.164,0,0,0,.232-.232l-.351-.351.956-.956a.164.164,0,0,0-.232-.232l-.109.109-.468-.468.468-.468a.164.164,0,0,0-.232-.232l-.468.468-.215-.215a.164.164,0,0,0-.232,0s0,.011-.007.016q-.01-.653-.016-1.3l.287.288-.019.019a.164.164,0,1,0,.232.232l.019-.019.4.4a.164.164,0,0,0,.232-.232l-.4-.4.548-.548a.162.162,0,0,0,.048-.118.167.167,0,0,0-.051-.117l-.038-.036a.164.164,0,0,0-.277.125L48.6,43.7l-.338-.338a.156.156,0,0,0-.185-.019c0-.207,0-.412-.005-.619.009,0,.016.01.025.01a.163.163,0,0,0,.116-.048l.081-.081.438.438a.164.164,0,0,0,.232-.232l-.438-.438.767-.767a.164.164,0,0,0-.232-.232l-.767.767-.228-.228c0-.276,0-.548,0-.821l.255-.255.294.294a.164.164,0,1,0,.232-.232l-.294-.294.5-.5c.007,0,.013.009.021.009a.164.164,0,0,0,.116-.28l-.534-.534.457-.457a.164.164,0,0,0,0-.232c-.007-.007-.016,0-.024-.01a.154.154,0,0,0-.033-.152l-.315-.315.418-.418.35.351a.164.164,0,1,0,.232-.232l-.331-.331h.826C50.271,39.119,50.269,40.814,50.263,42.134Z" transform="translate(-18.217 -14.09)" fill="#ff8096"/>
  <path id="Path_19242" data-name="Path 19242" d="M8.263,12.551a.162.162,0,0,0,.116.048c.013,0,.024-.012.037-.015a2.539,2.539,0,0,0,1.717.641,2.878,2.878,0,0,0,2.515-1.463,2.926,2.926,0,0,0,.238-2.1c-.268-1.024-1.347-2.319-2.658-2.081A3.1,3.1,0,0,0,7.479,9.731a2.86,2.86,0,0,0,.748,2.676.157.157,0,0,0,.037.144Zm.645-.413.191-.191.559.558a1.56,1.56,0,0,1-.75-.367Zm.981-.98.558.558-.464.464a.153.153,0,0,0-.033.153l-.618-.618Zm.673-.674.558.558-.441.441-.558-.558Zm1.507.968a2.229,2.229,0,0,1-1.889,1.111l-.12-.12c.013,0,.024.016.037.016a.163.163,0,0,0,.116-.048l.474-.474a.144.144,0,0,0,.2-.013.158.158,0,0,0,.013-.2l.451-.451.088.088a.164.164,0,1,0,.232-.232l-.088-.088.005-.005a.164.164,0,0,0-.232-.232l-.005.005-.27-.27c.013,0,.024.016.037.016a.163.163,0,0,0,.116-.048l.256-.256.055.055a.164.164,0,0,0,.232-.232l-.055-.055.441-.441v0a2.086,2.086,0,0,1,.087.252,2.264,2.264,0,0,1-.182,1.625ZM8.114,9.9a2.562,2.562,0,0,1,2.23-1.672,1.793,1.793,0,0,1,1.69,1.079.157.157,0,0,0-.1.042l-.441.441-.534-.534a.164.164,0,0,0-.232.232l.534.534L11,10.276a.153.153,0,0,0-.033.153l-.218-.218a.161.161,0,0,0-.044-.106.164.164,0,0,0-.232,0l-.607.608a.144.144,0,0,0-.193.193l-.577.577-.418-.418a.164.164,0,0,0-.232.232l.418.418-.2.2A2.218,2.218,0,0,1,8.114,9.9Z" transform="translate(-4.45 -4.009)" fill="#ff8096"/>
</svg>
