<svg xmlns="http://www.w3.org/2000/svg" width="50.086" height="50.058" viewBox="0 0 50.086 50.058">
  <g id="icon_cus" transform="translate(-1.003 -1.019)">
    <g id="XMLID_2_" transform="translate(1.003 1.019)">
      <path id="Path_8067" data-name="Path 8067" d="M50.205,29.255l-.25-.25a2.046,2.046,0,0,0-.8.438l.141.1a.2.2,0,0,1,.039.274.183.183,0,0,1-.157.078.177.177,0,0,1-.117-.039L48.9,29.74a1.749,1.749,0,0,0-.157.235,2.8,2.8,0,0,0-.227.767l.157.039a.2.2,0,0,1,.157.227.2.2,0,0,1-.2.157h-.039l-.125-.031c-.016.2-.023.407-.031.6l-.016.563.219-.016a.189.189,0,0,1,.211.172.207.207,0,0,1-.172.219l-.266.023-.047,1.393a.192.192,0,0,1-.2.188.2.2,0,0,1-.2-.2l.047-1.346-.321.031h-.023a.194.194,0,0,1-.188-.18.192.192,0,0,1,.172-.211l.368-.031.016-.618c.008-.211.023-.438.039-.665L47.818,31a.194.194,0,0,1-.149-.227.2.2,0,0,1,.227-.157l.235.047a3.113,3.113,0,0,1,.258-.861,1.537,1.537,0,0,1,.188-.29l-.1-.078a.223.223,0,0,1-.125-.016.2.2,0,0,1-.078-.266l.023-.047a.183.183,0,0,1,.125-.1.179.179,0,0,1,.164.031l.25.18a2.572,2.572,0,0,1,.814-.532l-.164-.157a.2.2,0,1,1,.282-.274l.305.305a2.282,2.282,0,0,1,1.33.117.193.193,0,0,1,.11.25.2.2,0,0,1-.258.11,1.791,1.791,0,0,0-.837-.117l.07.063a.2.2,0,0,1-.141.337.21.21,0,0,1-.141-.063Z" transform="translate(-11.107 -6.925)" fill="#8e66ff"/>
      <path id="Path_8068" data-name="Path 8068" d="M17.611,7.618a1.97,1.97,0,0,1-.618-.36q-.622.434-1.221.916a.195.195,0,1,1-.243-.305c.383-.313.783-.6,1.182-.892a1.923,1.923,0,0,1-.243-.376.2.2,0,0,1,.086-.266.2.2,0,0,1,.266.094,1.5,1.5,0,0,0,.219.329c.454-.313.924-.6,1.4-.877l-.25-.2a.195.195,0,0,1,.243-.305l.383.3a20.981,20.981,0,0,1,2.591-1.2l-.235-.2a.195.195,0,1,1,.243-.305l.423.344c.61-.219,1.221-.415,1.847-.579-.047-.055-.117-.1-.164-.164a.195.195,0,0,1,.305-.243,2.9,2.9,0,0,0,.313.305c.673-.164,1.362-.3,2.051-.4l-.172-.258a.2.2,0,0,1,.055-.266.193.193,0,0,1,.274.055l.274.415c.618-.078,1.237-.125,1.855-.149L28.309,2.7a.194.194,0,0,1,.086-.258.2.2,0,0,1,.266.094l.243.493c.407-.008.814-.008,1.229.008l-.078-.344A.2.2,0,0,1,30.2,2.46a.2.2,0,0,1,.235.149l.094.454a19.385,19.385,0,0,1,2.137.235.193.193,0,0,1,.164.219.2.2,0,0,1-.227.164c-.657-.11-1.323-.18-1.988-.227l.016.078a.188.188,0,0,1-.149.227.085.085,0,0,1-.039.008.2.2,0,0,1-.2-.157l-.039-.18c-.376-.016-.744-.023-1.119-.023l.055.117a.2.2,0,0,1-.094.266.193.193,0,0,1-.258-.094l-.133-.274c-.6.016-1.205.055-1.8.125l.149.219a.2.2,0,0,1-.055.266.193.193,0,0,1-.274-.055l-.25-.376c-.626.086-1.252.2-1.871.329a2.454,2.454,0,0,0,.243.141.206.206,0,0,1,.1.258.193.193,0,0,1-.258.1,2.634,2.634,0,0,1-.626-.368c-.618.157-1.221.337-1.824.548l.11.094a.195.195,0,1,1-.243.305l-.305-.25a22.161,22.161,0,0,0-2.6,1.174l.18.141a.208.208,0,0,1,.039.282.2.2,0,0,1-.274.031l-.329-.25c-.493.274-.978.571-1.448.884a1.789,1.789,0,0,0,.415.227.191.191,0,0,1,.117.25.194.194,0,0,1-.25.117Z" transform="translate(-4.144 -1.324)" fill="#8e66ff"/>
      <path id="Path_8069" data-name="Path 8069" d="M17,41.876a.2.2,0,0,1,0,.274l-.133.133.078.078a.194.194,0,0,1-.274.274l-.086-.078-.837.837.822.822a.2.2,0,0,1,0,.282.214.214,0,0,1-.282,0l-.837-.845c-.023.008-.047.031-.07.031a.2.2,0,0,1-.141-.055.191.191,0,0,1-.023-.211l-.477-.477a.194.194,0,0,1,.274-.274l.454.454.845-.837-.892-.892a.2.2,0,0,1,0-.274.181.181,0,0,1,.243-.016l.509-.509-.337-.344a.194.194,0,0,1,.274-.274l.344.337.023-.023a.2.2,0,0,1,.274,0,.2.2,0,0,1,0,.282l-.023.023.29.282a.214.214,0,0,1,0,.282.2.2,0,0,1-.282,0l-.282-.29-.5.5.642.634.125-.125A.2.2,0,0,1,17,41.876Z" transform="translate(-3.975 -9.473)" fill="#8e66ff"/>
      <path id="Path_8070" data-name="Path 8070" d="M10.436,33.58a.2.2,0,0,1-.016-.4l.446-.031c-.016-.548.008-1.088.031-1.628l-.157-.039a.2.2,0,0,1-.149-.243.2.2,0,0,1,.243-.141l.07.023a1.508,1.508,0,0,1,.008-.188,8.8,8.8,0,0,1,.094-.877l-.274-.039a.2.2,0,0,1-.164-.227.207.207,0,0,1,.227-.164l.29.047a3.3,3.3,0,0,1,.344-.884c.031-.039.055-.078.086-.117l-.172-.078a.2.2,0,0,1-.1-.258.2.2,0,0,1,.258-.1l.282.125a1.741,1.741,0,0,1,1.659-.524.19.19,0,0,1,.141.243.194.194,0,0,1-.243.133,1.315,1.315,0,0,0-1.166.321l.172.078a.2.2,0,0,1,.1.258.216.216,0,0,1-.18.117.232.232,0,0,1-.078-.016l-.313-.141c-.039.055-.078.11-.11.164a2.488,2.488,0,0,0-.29.736.2.2,0,0,1,.157.219.187.187,0,0,1-.188.172h-.031l-.023-.008a8.353,8.353,0,0,0-.094.853c0,.086,0,.164-.008.25l.337.086a.185.185,0,0,1,.141.235.2.2,0,0,1-.188.149.1.1,0,0,1-.047-.008l-.25-.063c-.016.5-.039,1-.031,1.495l.18-.008a.188.188,0,0,1,.211.172.194.194,0,0,1-.18.211l-.188.023c.016.524.031,1.057.078,1.581a.194.194,0,0,1-.18.211.024.024,0,0,1-.016.008.2.2,0,0,1-.2-.18c-.047-.532-.063-1.057-.078-1.589l-.43.039h-.016Z" transform="translate(-3.011 -6.836)" fill="#8e66ff"/>
      <path id="Path_8071" data-name="Path 8071" d="M11.191,36.152l-.681.681.454.454.681-.681Zm-2,2a2.24,2.24,0,0,0,.869.509,2.8,2.8,0,0,0,2.755-.877l-.892-.9-.681.689.383.383a.194.194,0,1,1-.274.274l-.391-.383-.25.25a.189.189,0,0,1-.274,0,.2.2,0,0,1,0-.282l.25-.243-.454-.454-.477.47.595.595a.2.2,0,0,1,0,.274.2.2,0,0,1-.282,0l-.587-.587Zm29.169-2.019.939.939c.008-.016.008-.031.023-.047l.861-.861-.924-.924ZM25.02,48.549l-.673.665.884.884v.008a5.016,5.016,0,0,0,.97-.376l-.368-.368-.43.43a.194.194,0,0,1-.274-.274l.43-.43-.532-.532c-.008-.008,0-.016-.008-.008Zm-.947.939-.673.673a2.3,2.3,0,0,0,1.393.055ZM48.343,31.7l.634.634.665.665a6.3,6.3,0,0,0,.556-1.6l-.931.931a.2.2,0,1,1-.282-.282l.548-.548L49.039,31Zm-.736,2.34-.72.72.61.61c.016.016.016.047.023.063a7.032,7.032,0,0,0,.939-.8.191.191,0,0,1-.258-.008Zm-.994.994-.783.783.07.07a.189.189,0,0,1,0,.274.2.2,0,0,1-.282,0l-.07-.07-.321.329a5.4,5.4,0,0,0,1.98-.79ZM7.324,36.145c-.352-1.636.023-3.984-.219-7.255a21.465,21.465,0,0,1-.29-4.845v-.031C6.69,24.006,6.557,24,6.424,24c-2.356,0-4.117,2.121-4.547,5.056a7.342,7.342,0,0,0,.877,4.985,4.412,4.412,0,0,0,4.571,2.105Zm37.559-1.268.665.665.783-.783-.665-.665Zm-1.526,1.518a4.473,4.473,0,0,0,1.338.078.233.233,0,0,1,.063-.141l.517-.517-.665-.665-1.237,1.237C43.373,36.395,43.365,36.395,43.357,36.395Zm-.337-2.309a12.358,12.358,0,0,1-.321,2.137,3.221,3.221,0,0,0,.368.1.2.2,0,0,1,.023-.219l1.237-1.229-.493-.493a.2.2,0,0,1,0-.274.2.2,0,0,1,.282,0l.485.485.783-.783-.571-.571a.2.2,0,0,1,0-.282.2.2,0,0,1,.274,0l.579.579.094-.094a.189.189,0,0,1,.274,0,.2.2,0,0,1,0,.282l-.094.086.665.673.728-.728-1.15-1.143a.2.2,0,0,1,0-.282.189.189,0,0,1,.274,0l1.15,1.15.759-.759a.2.2,0,0,1,.282,0,.2.2,0,0,1,0,.274l-.759.759.587.587a.192.192,0,0,1,.008.258,6.7,6.7,0,0,0,.97-1.276c-.023-.008-.047-.008-.063-.023l-1.33-1.323-.29.29a.2.2,0,0,1-.274,0,.2.2,0,0,1,0-.282l.36-.36a.2.2,0,0,1,.039-.094A.165.165,0,0,1,48,31.5l.759-.767-.227-.235a.194.194,0,0,1,.274-.274l.235.235.117-.125a.189.189,0,0,1,.274,0,.2.2,0,0,1,0,.282l-.117.117.493.493.337-.329a.182.182,0,0,1,.117-.055,4.828,4.828,0,0,0,.031-.751l-1.135-1.135a.194.194,0,0,1,.274-.274l.822.814a6.457,6.457,0,0,0-2.246-4.179,7.471,7.471,0,0,0-4.5-1.55,10.428,10.428,0,0,1,.063,2.88ZM41.393,21.854a2.723,2.723,0,0,0-3.052.485c-1.346,1.229-1.464,3.021-1.346,4.735a7.154,7.154,0,0,1-.376,3.444,10.911,10.911,0,0,0-.587,3.17,5.2,5.2,0,0,0,1.017,3.2l.767-.759-.383-.376a.2.2,0,0,1,.282-.282l.376.383.916-.924a.181.181,0,0,1,.031-.2.2.2,0,0,1,.282,0l1.143,1.143.235-.235a.2.2,0,0,1,.282,0,.214.214,0,0,1,0,.282l-.235.235.548.548a.189.189,0,0,1,0,.274.2.2,0,0,1-.282,0l-.548-.548L39.6,37.3c-.016.016-.031.016-.047.023l.11.11a.194.194,0,0,1-.274.274l-1.3-1.3-.775.783c.055.055.11.117.164.172a2.567,2.567,0,0,0,4.375-1.041,9.434,9.434,0,0,0,.383-2.293l.157-2.058-.446-.446-.634.634c-.016.016-.031.008-.055.016a.2.2,0,0,1,.11.047l.814.814a.2.2,0,0,1,0,.274.2.2,0,0,1-.141.055c-.016,0-.023-.008-.039-.016l-.7.7.524.517a.2.2,0,0,1,0,.274.2.2,0,0,1-.282,0l-.517-.517-.462.462a.2.2,0,0,1-.282,0,.2.2,0,0,1,0-.274l.462-.462-.172-.18a.194.194,0,0,1,.274-.274l.18.172L41.7,33.1l-.6-.6a.176.176,0,0,1,.047-.3.2.2,0,0,1-.11-.047.214.214,0,0,1,0-.282l.634-.634-.29-.29a.2.2,0,0,1,0-.274.2.2,0,0,1,.282,0l.29.29.172-.172a.2.2,0,0,1,.282,0,.2.2,0,0,1,0,.274l-.18.18.211.2.352-4.805a8.533,8.533,0,0,0-.149-3.115A2.822,2.822,0,0,0,41.393,21.854ZM22.562,48.729a1.745,1.745,0,0,0,.509,1.205l.72-.72-.149-.157a.194.194,0,0,1,.274-.274l.157.149.955-.955a.194.194,0,0,1,.274.274l-.016.023h.023l.524.532.744-.736a.008.008,0,0,0,.008-.008l-.219-.211-.2.2a.194.194,0,1,1-.274-.274l.2-.2-.1-.1a.194.194,0,1,1,.274-.274l.1.1.321-.321a.2.2,0,0,1,.274,0,.2.2,0,0,1,0,.282l-.321.313.61.61a.194.194,0,1,1-.274.274l-.125-.117v.008l-.736.744.4.4c.008.008.008.023.016.039a2.885,2.885,0,0,0,.524-.438,2.232,2.232,0,0,0,.595-1.55,1.562,1.562,0,0,0-.117-.556,2.166,2.166,0,0,0-2.105-1.1c-1.871.078-2.935,1.15-2.864,2.849ZM14.157,28.663V28.49l-.086.086ZM18.641,3.031c-2.317.978-7.419,2.747-8.484,5.056a2.128,2.128,0,0,0-.11,1.5,1.324,1.324,0,0,0,.524.751,2.016,2.016,0,0,0,1.964-.016c1.44-.712,5.314-5.635,12.992-4.931,4.571.423,8.656,2.9,12.921,4.344,2.692.916,2.982-.689,2.489-1.651-.877-1.683-8.116-6.3-16.075-6.3a15.448,15.448,0,0,0-6.222,1.244ZM13.953,30.2l.235.235-.008-.462Zm.329,6.887c-.775,1.581-2.645,2.88-4.453,2.324A3.69,3.69,0,0,1,7.544,36.9,5.191,5.191,0,0,1,2.1,34.462a8.1,8.1,0,0,1-.986-5.525,7.271,7.271,0,0,1,2.395-4.665A17.642,17.642,0,0,1,9.25,9.574a2.962,2.962,0,0,1,.2-1.816c1.205-2.63,6.363-4.383,8.891-5.455,9.7-4.109,21.875,2.716,23.291,5.424a2.621,2.621,0,0,1,.29,1.166,1.873,1.873,0,0,1-.43,1.229,2.731,2.731,0,0,1-.274.25,25.14,25.14,0,0,1,5.2,13.172,8.008,8.008,0,0,1,2.09,1.166,7.258,7.258,0,0,1,2.481,6.723A7.172,7.172,0,0,1,45.2,37.209a17.785,17.785,0,0,1-16.8,10.714,3.068,3.068,0,0,1-.783,1.7c-1.041,1.119-3.4,1.871-4.657,1.205a2.4,2.4,0,0,1-1.19-2.058c-.094-2.16,1.291-3.569,3.608-3.671a2.938,2.938,0,0,1,2.857,1.581,2.117,2.117,0,0,1,.141.462A16.98,16.98,0,0,0,44.3,37.287h-.031a5.14,5.14,0,0,1-1.808-.321c-.008,0-.016-.008-.031-.008a3.258,3.258,0,0,1-.931,1.26,3.615,3.615,0,0,1-4.539-.274,5.658,5.658,0,0,1-1.714-4.258,11.675,11.675,0,0,1,.618-3.381,6.447,6.447,0,0,0,.344-3.178c-.133-1.964.078-3.968,1.6-5.361a3.5,3.5,0,0,1,3.968-.595A3.578,3.578,0,0,1,43.271,23a6.649,6.649,0,0,1,2.317.266,24.076,24.076,0,0,0-5.111-12.561,4.134,4.134,0,0,1-2.285-.227c-4.265-1.448-8.319-3.9-12.741-4.312-7.294-.673-10.957,4.062-12.569,4.86a2.745,2.745,0,0,1-2.763-.047,1.971,1.971,0,0,1-.571-.618A16.884,16.884,0,0,0,4.241,23.771,4.585,4.585,0,0,1,7,23.254c.556-1.777,2.223-3.42,4.179-3.17a4.206,4.206,0,0,1,3.17,2.763,11.31,11.31,0,0,1,.563,4.062L15,32.1a10.719,10.719,0,0,1-.72,4.985Zm-.7-.344a10.165,10.165,0,0,0,.642-4.633L14.2,30.862c-.008,0-.023.016-.031.016a.2.2,0,0,1-.141-.063l-.344-.344-.36.368a.2.2,0,0,1-.282,0,.214.214,0,0,1,0-.282l.368-.36-.274-.274a.194.194,0,0,1,.274-.274l.274.266.493-.485v-.2h-.008L13.8,28.85l-.2.2a.2.2,0,0,1-.282,0,.189.189,0,0,1,0-.274l.2-.2-.2-.2a.2.2,0,0,1,.282-.282l.2.2.352-.352-.023-1.017a10.66,10.66,0,0,0-.509-3.8,3.431,3.431,0,0,0-2.544-2.27c-.094-.008-.188-.016-.282-.016a3.6,3.6,0,0,0-3.1,2.81.306.306,0,0,0-.023.1c-.391,1.675.086,3.326.219,5.079.3,3.945-.227,5.643.282,7.474a4.229,4.229,0,0,0,.759,1.557l.274-.274L8.616,37a.194.194,0,1,1,.274-.274l.595.587.47-.477-.61-.61a.194.194,0,0,1,.274-.274l.618.61.681-.681-.43-.43a.2.2,0,0,1,0-.282.2.2,0,0,1,.274,0l.43.438.571-.571a.189.189,0,0,1,.274,0,.2.2,0,0,1,0,.282l-.564.563.454.454.6-.61a.2.2,0,0,1,.282,0,.214.214,0,0,1,0,.282l-.61.6.884.884a3.553,3.553,0,0,0,.493-.751Z" transform="translate(-1.003 -1.019)" fill="#8e66ff"/>
    </g>
  </g>
</svg>
