<svg xmlns="http://www.w3.org/2000/svg" width="55.226" height="50.082" viewBox="0 0 55.226 50.082">
  <g id="invest-trust" transform="translate(-1.001 -3.981)">
    <path id="Path_8078" data-name="Path 8078" d="M58.322,11.1a1.913,1.913,0,0,0-3.136,1.884c.733,4.012.324,7.275-1.283,10.084a2.091,2.091,0,0,0-.361-1.386c-.859-1.192-2.8-.868-3.8.289-2.181,2.521,0,3.831-7.372,7.579-6.263,3.213-6.642,5.924-5.346,11.481a12.3,12.3,0,0,1,.455,5.462,5.05,5.05,0,0,0-2.218,1.31,4.8,4.8,0,0,0-1.18,4.139c.625,2.813,3.189,3.025,6.367,3.025a34.212,34.212,0,0,0,4.253-.3c2.161-.269,4.974-.733,6.077-1.691a3.634,3.634,0,0,0,1.2-2.85c-.1-1.777-1.287-2.767-2.962-3.321a20.108,20.108,0,0,0-2-.539.385.385,0,0,0,.118-.3c-.125-2.455,1.353-4.617,2.616-6,.123-.135.254-.265.381-.4,0,0,0,0,.006,0a.2.2,0,0,0,.138-.057.189.189,0,0,0,.053-.149c.7-.7,1.451-1.357,2.185-2,.794-.692,1.615-1.409,2.369-2.178,8.7-8.864,5.8-21.982,3.444-24.1ZM37.177,53.937l.336-.336.263.263a.2.2,0,1,0,.277-.277l-.263-.263.572-.572,1.1,1.1-.279.279a14.964,14.964,0,0,1-2.011-.2Zm2.537.227.07-.07a.194.194,0,0,0,.2-.2l.908-.909.651.651-.1.1a.2.2,0,0,0,.277.277l.1-.1.06.06a.2.2,0,0,0,.277-.277l-.06-.06L43,52.733l.908.908-.1.1a.188.188,0,0,0-.016.239,29.959,29.959,0,0,1-4.079.186Zm4.469-.8-.908-.908.769-.769.908.908Zm.419.528c-.154.019-.292.029-.442.047l1.067-1.067.8.8c-.477.079-.955.158-1.43.217Zm2.836-.705a.2.2,0,0,0,.277,0l.059-.059.174.174c-.478.107-.957.211-1.438.3l-1.005-1.005.868-.868L47.5,52.851l-.059.059A.2.2,0,0,0,47.439,53.187Zm2.949-4.766-.641.64-.178-.178a.2.2,0,0,0-.277.277l.178.178-.572.572a.2.2,0,0,0,.277.277l.572-.572.909.909a.2.2,0,1,0,.277-.277l-.909-.909.625-.624a2.7,2.7,0,0,1,.542,1.456,2.831,2.831,0,0,1-.929,2.217A4.18,4.18,0,0,1,48.4,53.2l-.353-.353L49.1,51.806l.55.55a.2.2,0,0,0,.277-.277l-.55-.55.794-.795a.2.2,0,1,0-.277-.277l-.794.795-.908-.908a.2.2,0,0,0-.277.277l.908.908-1.045,1.046L46.65,51.451l.793-.793a.2.2,0,1,0-.277-.277l-.793.793L45.9,50.7a.2.2,0,1,0-.277.277l.474.474-.868.868-.906-.909.6-.6a.2.2,0,0,0-.277-.277l-.6.6-.04-.04a.2.2,0,0,0-.277.277l.04.04L43,52.179l-.652-.652a.2.2,0,1,0-.277.277l.652.651-.908.908-.651-.651.822-.822a.2.2,0,0,0-.277-.277l-.822.822-.276-.276a.2.2,0,0,0-.277.277l.276.276-.867.868-1.1-1.1.866-.866a.2.2,0,0,0-.277-.277l-1.715,1.715-.532-.532a.2.2,0,1,0-.277.277l.532.532-.5.5c-2.427-.727-2.463-3.866-.909-5.486,2.013-2.1,8.446-2.282,12.94-.792A3.908,3.908,0,0,1,50.389,48.421ZM41.008,44.33l.721.721-.639.639a.187.187,0,0,0-.049.157c-.07.006-.14.017-.21.024l-.682-.682Zm2.7,1.476c-.377-.019-.754-.022-1.131-.021a.186.186,0,0,0,.118-.049.2.2,0,0,0,0-.277l-.41-.41L43.4,43.93l.979.979-.659.659a.19.19,0,0,0-.016.237Zm-1.289-.07a.192.192,0,0,0,.116.048c-.342,0-.683.02-1.023.04l.5-.5Zm-2.081.193c-.362.043-.724.095-1.085.159l.621-.621Zm6.044.2a20.089,20.089,0,0,0-2.366-.293l.645-.645.664.664a.2.2,0,0,0,.277-.277l-.664-.664,1.319-1.319.043.043a.2.2,0,0,0,.277-.277l-.043-.043.256-.256a.2.2,0,0,0-.277-.277l-.256.256-.6-.6L47.19,40.9l.494.494c-1.262,2.039-1.519,4.161-1.306,4.731ZM47.9,41.063l-.438-.439.1-.1a.2.2,0,0,0-.277-.277l-.1.1-.379-.378a.158.158,0,0,0,.217-.024l1.7-1.7.822.822c-.123.127-.256.243-.376.375A13.847,13.847,0,0,0,47.9,41.063Zm1.919-2.269-.164-.164,1.5-1.5.211.211Q50.577,38.04,49.823,38.794Zm5.738-5.565c-.008-.011-.005-.027-.016-.037l-.763-.763.411-.411a.2.2,0,0,0-.277-.277l-.411.411-.141-.141a.2.2,0,1,0-.277.277l.141.141-.22.22a.2.2,0,0,0,.277.277l.22-.221.763.763a.184.184,0,0,0,.08.034c-.327.394-.669.778-1.029,1.145-.3.305-.616.6-.934.892l-.6-.6.721-.721.42.42a.2.2,0,0,0,.277-.277l-.42-.42.167-.167a.2.2,0,0,0-.277-.277l-.167.167-.18-.18a.2.2,0,1,0-.277.277l.18.18-.728.728a.409.409,0,0,0-.25.527.178.178,0,0,0,.25.011l.6.6c-.368.331-.739.658-1.105.977-.111.1-.223.2-.336.3l-.227-.227.542-.542a.2.2,0,1,0-.277-.277l-.542.542-.18-.18a.2.2,0,0,0-.277.277l.18.18-1.5,1.5L49,37.972l.167-.167a.2.2,0,0,0-.277-.277l-2.14,2.141a.185.185,0,0,0-.024.217l-.018-.018a.2.2,0,0,0-.277.277l.48.48-1.538,1.538-.818-.818a.2.2,0,0,0-.277.277l.818.818-.539.539a.2.2,0,0,0,.277.277l.539-.539.6.6-1.319,1.319-.979-.979L44.82,42.51a.2.2,0,0,0-.277-.277L43.4,43.379l-.121-.121a.2.2,0,0,0-.277.277l.121.121L42,44.775l-.721-.72,1.313-1.313a.2.2,0,0,0-.277-.277l-2.448,2.448-.261-.261a.2.2,0,0,0-.277.277l.261.261-1.026,1.026c-.232.049.03-.014-.258.052a13.868,13.868,0,0,0-.527-5.417c-1.268-5.443-.9-7.6,5.166-10.724,7.261-3.715,5.471-5.438,7.381-7.648.627-.726,2.015-1.12,2.577-.343,1.016,1.4-1.855,5.6-3.059,6.962a.391.391,0,0,0,.587.518,17.171,17.171,0,0,0,2.643-4.03c2.882-3.392,3.823-7.563,2.877-12.749-.158-.868.784-2.109,1.843-1.161,1.6,1.431,4.932,12.583-2.233,21.552Z" transform="translate(-4.522 -0.901)" fill="#ff8700"/>
    <path id="Path_8079" data-name="Path 8079" d="M14.623,45.97a.387.387,0,0,0,.118.3,20.109,20.109,0,0,0-2,.539c-1.689.561-2.865,1.552-2.962,3.321a3.631,3.631,0,0,0,1.2,2.849,5.022,5.022,0,0,0,2.275,1.01,37.407,37.407,0,0,0,8.056.979c3.847,0,5.81-.522,6.367-3.025A4.807,4.807,0,0,0,26.5,47.8a5.058,5.058,0,0,0-2.218-1.31,12.3,12.3,0,0,1,.455-5.462c.5-2.145,1.018-4.364.216-6.462C24,32.09,21.533,30.638,19.16,29.432c-6.943-3.555-5.153-5.159-7.147-7.464-1.438-1.667-4.3-1.343-4.162,1.1-1.608-2.809-2.016-6.072-1.283-10.085.3-1.624-1.525-3.328-3.138-1.883-2.3,2.074-5.318,15.167,3.443,24.1,2.749,2.8,7.993,6,7.749,10.774ZM14.382,52.7l.9.9c-.463-.083-.922-.185-1.382-.286-.009-.014-.006-.031-.018-.043l-.039-.039Zm1.85,1.047.906-.906.7.7a.153.153,0,0,0,.21.028c-.136.136-.274.248-.132.4-1.234-.133-.469-.036-1.683-.221Zm2.125-2.125.818.818L18.14,53.479a.184.184,0,0,0-.028-.21l-.7-.7ZM18.149,54c.1-.056,1.223-1.2,1.3-1.275l1.257,1.257a.2.2,0,0,0,.277,0,.167.167,0,0,1,.105-.282l1.558-1.558,1.383,1.383-.532.532c-.006.006,0,.016-.009.022a26.288,26.288,0,0,1-5.34-.08Zm3.191-3.165,1.03,1.03L20.813,53.42a.186.186,0,0,0-.033.079l-1.053-1.054Zm2.968,2.414-1.383-1.383.8-.8,1.383,1.383Zm2.13-4.211-.274.114a.2.2,0,0,0-.063.042l-.628.628-.286-.286a.2.2,0,0,0-.277.277l.286.286-.781.781a.2.2,0,0,0,.277.277l.781-.781.893.893a.2.2,0,0,0,.277-.277L25.75,50.1l.6-.6.268-.112a3.831,3.831,0,0,1,.293,2.385c-.374,1.684-1.575,2.087-2.82,2.247l.219-.219a.188.188,0,0,0,.267,0,.194.194,0,0,0,0-.267l.8-.8.141.141a.2.2,0,1,0,.277-.277l-.141-.141.763-.763a.2.2,0,0,0-.277-.277l-.763.763L24,50.784l.467-.467a.2.2,0,0,0-.277-.277l-.467.467-.409-.409a.2.2,0,0,0-.277.277l.409.409-.8.8-1.03-1.03.265-.265a.2.2,0,1,0-.277-.277l-2.155,2.155-.818-.818.322-.322a.2.2,0,0,0-.277-.277l-.418.418c-.02.009-.043.009-.06.025s-.016.04-.025.06l-1.036,1.039-.639-.639a.2.2,0,0,0-.277.277l.639.639L15.83,53.6l-1.172-1.172,1.4-1.4a.2.2,0,0,0-.277-.277l-1.416,1.416a.179.179,0,0,0-.25.25l-.549.549-.639-.639a.2.2,0,0,0-.277.277l.57.57c-1.95-.483-2.736-1.648-2.661-3,.081-1.462,1.094-2.178,2.427-2.622,4.548-1.508,10.954-1.281,12.94.792a3.545,3.545,0,0,1,.51.7Zm-9.312-3.927.581.581-.161.161c-.294.022-.589.042-.883.079l-.179-.179Zm2.1.462a.184.184,0,0,0-.025.215c-.274,0-.549.005-.823.016l-.112-.112.9-.9.421.421Zm.637-.083.335.335c-.213-.012-.425-.026-.639-.031Zm.67.351a.19.19,0,0,0-.012-.247l-.381-.381,1.119-1.119.721.721-.6.6a.2.2,0,1,0,.277.277l.6-.6.96.96a.15.15,0,0,0,.2.032c.009.063.023.125.035.187a19.572,19.572,0,0,0-2.916-.429Zm3.225-5.11a.173.173,0,0,0,.242.014c-.105.452-.186.807-.247,1.086a.185.185,0,0,0-.043-.1l-.68-.681.521-.521Zm-.368,3.262a9.272,9.272,0,0,0-.021,1.659l-.838-.838.84-.84ZM3.954,11.677c1.053-.941,2,.286,1.844,1.161-.946,5.187-.005,9.356,2.877,12.748a17.2,17.2,0,0,0,2.644,4.031.391.391,0,1,0,.587-.518,16.362,16.362,0,0,1-2.964-4.832c-1.206-3.045,1.44-3,2.482-1.787,1.859,2.15.092,3.9,7.606,7.765,2.216,1.136,4.378,2.479,5.189,4.6a6.976,6.976,0,0,1,.249,3.572l-.186-.185.123-.124a.2.2,0,0,0-.277-.277L24,37.954l-.519-.519a.2.2,0,0,0-.277.277l.519.519-.719.719a.2.2,0,1,0,.277.277L24,38.508l.383.382c-.094.529-.211,1.067-.337,1.612-.009-.016-.007-.037-.022-.051l-.206-.206.022-.022a.2.2,0,1,0-.277-.277l-.022.022-.42-.42a.2.2,0,0,0-.277.277l.42.42-.521.521-.061-.061a.2.2,0,0,0-.277.277l.069.069a.189.189,0,0,0,.011.25.178.178,0,0,0,.25.011l.688.689a.2.2,0,0,0,.277,0c.008-.008.005-.019.011-.028-.109.506-.2,1.013-.274,1.522l-.478-.478.443-.444a.2.2,0,0,0-.277-.277l-.443.443,0,0a.2.2,0,0,0-.277.277l0,0-.2.2a.2.2,0,0,0,.277.277l.2-.2.4.4-.84.84-.721-.721.712-.711a.2.2,0,0,0-.277-.277l-.712.711-.122-.122a.2.2,0,1,0-.277.277l.122.122-1.119,1.119-.421-.421,1.126-1.126a.2.2,0,0,0-.277-.277l-1.125,1.126-.261-.261a.2.2,0,0,0-.277.277l.261.261-.9.9-.581-.581.84-.84a.2.2,0,0,0-.277-.277L16.2,45.472l-.34-.341a.2.2,0,1,0-.277.277l.34.34-.344.344c-.071.013-.142.02-.212.033a.368.368,0,0,0,.028-.115c.268-5.213-5.233-8.566-7.973-11.363-8.1-8.266-5.765-20.91-3.473-22.97Z" transform="translate(0 -0.9)" fill="#ff8700"/>
    <path id="Path_8080" data-name="Path 8080" d="M44.206,12.831A7.455,7.455,0,0,0,42.65,5.918,6.21,6.21,0,0,0,32.1,8.745,6.211,6.211,0,0,0,21.559,5.918c-2.531,2.689-2.971,8.185,2.358,12.869A35.413,35.413,0,0,0,29.8,22.7l1.52.872-.021.012a.391.391,0,1,0,.388.678l.419-.24.419.24a.391.391,0,1,0,.39-.678l-.021-.012c4.259-2.441,9.933-5.291,11.313-10.745Zm-9.451,8.747-.115-.115,1-1,.3.3a.2.2,0,0,0,.137.057q-.658.4-1.318.782C34.758,21.592,34.76,21.584,34.755,21.579Zm-1.231-1.231,1-1,.84.84-1,1ZM22.129,6.455A5.438,5.438,0,0,1,31.454,9.43a.385.385,0,0,0,.651.226.384.384,0,0,0,.651-.226,5.437,5.437,0,0,1,9.324-2.975A6.458,6.458,0,0,1,43.627,11.6l-.436-.436.36-.36a.2.2,0,0,0-.277-.277l-.36.36-.134-.134a.2.2,0,1,0-.277.277l.134.134L42.5,11.3a.2.2,0,1,0,.277.277l.134-.134.521.521a.191.191,0,0,0,.131.054,6.5,6.5,0,0,1-.375,1.436l-.408-.408c.211-.211.61-.492.412-.689a.2.2,0,0,0-.277,0l-.412.412-.324-.324a.2.2,0,1,0-.277.277l.324.324-.541.541-.107-.107a.2.2,0,1,0-.277.277l.13.13a.183.183,0,0,0,.034.2c.08.08.128.056.2.034l.539.539a.2.2,0,1,0,.277-.277l-.516-.515.54-.54.434.434a.188.188,0,0,0,.11.046c-1.3,3.15-4.008,5.2-6.816,6.917a.188.188,0,0,0-.016-.238l-.3-.3,1.63-1.63.461.461a.2.2,0,1,0,.277-.277l-.461-.461.1-.1a.2.2,0,1,0-.277-.277l-.1.1-.434-.434a.2.2,0,1,0-.277.277l.434.434-1.63,1.63-.84-.84.872-.872a.2.2,0,0,0-.277-.277l-1.01,1.01h0v0l-1.141,1.141-.707-.707a.193.193,0,0,0-.262-.006L33.4,18.231a.2.2,0,1,0-.277-.277l-2.281,2.281-.543-.543a.2.2,0,0,0-.277.277l.543.543L29.481,21.6c-.005.005,0,.013-.008.018A31.082,31.082,0,0,1,24.429,18.2c-4.974-4.376-4.539-9.366-2.3-11.745ZM32.264,19.641l.707.707-1,1-.84-.84,1.131-1.131a.192.192,0,0,0,.006.261Zm-2.076,2.386-.365-.211,1.028-1.028.84.84-.3.3a.2.2,0,0,0,.277.277l.3-.3.827.827-.689.394Zm2.943.511c-.008-.013-.005-.029-.016-.04l-.871-.871,1-1,.852.852a.187.187,0,0,0,.017.235.17.17,0,0,0,.235.017l.068.068s-.077.048-1.288.742Z" transform="translate(-2.569)" fill="#ff8700"/>
    <path id="Path_8081" data-name="Path 8081" d="M41.274,18.7l.6-.6.983.983a.2.2,0,0,0,.277-.277l0,0,1.14-1.14.085.086a.2.2,0,1,0,.277-.277l-.085-.085.324-.324a.2.2,0,0,0-.277-.277l-.324.324-.706-.706c-.012-.012-.03-.01-.044-.018a.186.186,0,0,0-.047-.162.2.2,0,0,0-.277,0l-1.322,1.322-.053-.053a.2.2,0,1,0-.277.277l.053.053-.6.6a.2.2,0,0,0,.276.277Zm2.014-2.013.7.7-1.14,1.14-.7-.7Z" transform="translate(-5.475 -1.67)" fill="#ff8700"/>
    <path id="Path_8082" data-name="Path 8082" d="M29.389,9.947a.2.2,0,0,0-.277,0l-.626.626L27.9,9.986l.381-.381A.2.2,0,0,0,28,9.329l-.381.381-.765-.766.358-.358a.2.2,0,1,0-.277-.277l-1.6,1.6a.194.194,0,0,0-.144.055.191.191,0,0,0-.055.143l-.567.567-.354-.354a.2.2,0,0,0-.277.277l1.4,1.4-.432.432a.2.2,0,0,0,.277.277l.432-.432.34.34a.2.2,0,0,0,.277-.277l-.34-.34.528-.528.565.565a.2.2,0,0,0,.277-.277l-.565-.565.93-.93.587.587-.7.7a.2.2,0,0,0,.277.277l.7-.7.058.058a.2.2,0,1,0,.277-.277l-.058-.058.626-.626a.193.193,0,0,0,0-.274Zm-3.778,1.774-.766-.765.528-.528.765.765Zm.8-.8-.765-.765.93-.93.765.765Z" transform="translate(-3.136 -0.585)" fill="#ff8700"/>
  </g>
</svg>
