<svg xmlns="http://www.w3.org/2000/svg" width="47.475" height="50.286" viewBox="0 0 47.475 50.286">
  <g id="icon__people__01" transform="translate(-2.788 -0.999)">
    <path id="Path_8072" data-name="Path 8072" d="M17.84,21.921c-1.442,1.751-2.117,6.054,3.98,6.3,2.012.089,4,.028,6-.034q5.227-.163,10.466-.332c1.634-.043,2.795-.546,3.13-2.587a5.692,5.692,0,0,0-3.781-6.167c-1.7-.539-4.4-.224-5.01-2.112a6.286,6.286,0,0,0,1.178-1.161,10.961,10.961,0,0,0,1.928-5.478c.655-5.311-1.33-8.054-3.62-9.006a4.349,4.349,0,0,0-4.376.553c-.9.727-1.649-.039-2.816.886A4.991,4.991,0,0,0,23.55,4.831a11.443,11.443,0,0,0,1.159,10.5,7.9,7.9,0,0,0,1.639,1.771c-.844,1.951-2.39,2.019-4.448,2.548a7.357,7.357,0,0,0-4.06,2.267Zm8.3,5a.191.191,0,0,0,.046.112l.409.409c-.332.009-.666.016-1,.023ZM27.8,27.4l-.621.018.589-.589.554.555Zm1.78-.7.629.629-1.3.041Zm7.164.422-1.434.046a.191.191,0,0,0,.128-.053.2.2,0,0,0,0-.278l-.2-.2.511-.511Zm-.714-1.27.846-.845,1,1-.846.845Zm-.741,1.315-.595.019.269-.269C35.053,27.01,35.172,27.162,35.286,27.167Zm-.325-.805-.846-.846.511-.511.846.846Zm-.278.278-.415.415a.19.19,0,0,0-.054.147l-1.6.05s.006,0,.007,0A.192.192,0,0,0,32.63,27l1.206-1.207Zm-2.7.448a.186.186,0,0,0-.038.185l-1.3.041a.208.208,0,0,0-.006-.038l.862-.863.577.578Zm6.277-.015-.94.03.823-.823.723.723c.02.02.046.02.07.029-.226.028-.457.035-.676.041Zm2.378-1.929a2.3,2.3,0,0,1-1,1.685,1.7,1.7,0,0,1-.5.164.194.194,0,0,0,0-.269L38.425,26l.93-.93.292.292-.313.314a.2.2,0,0,0,.278.278l.336-.337a.172.172,0,0,0,.232-.232l.478-.479c-.008.078,0,.156-.015.234Zm.042-.633a.186.186,0,0,0-.211.028l-.549.549L38.76,23.924l.812-.812.86.86a.164.164,0,0,0,.227.021,4.222,4.222,0,0,1,.025.519ZM27.939,17.146l.41-.41.5.5a.2.2,0,0,0,.277-.278l-.5-.5.4-.4.592.592a.2.2,0,0,0,0,.273.193.193,0,0,0,.273,0l.19.19a.2.2,0,1,0,.278-.278l-.189-.189.835-.835.519.52a.2.2,0,0,0,.278-.278l-.52-.52,1-1,.211.211-.268.27a.2.2,0,1,0,.277.278l.269-.269.37.37a5.443,5.443,0,0,1-1.2,1.14,4.09,4.09,0,0,1-4.01.61Zm1.366-1.366.835-.835.591.591-.835.835Zm4.5-3.254a.2.2,0,0,0,.278,0l.344-.344c.023.009.042.028.065.028a.194.194,0,0,0,.119-.05,10.8,10.8,0,0,1-.446,1.419L32.886,12.3c-.02-.02-.048-.02-.072-.03l.83-.83.482.482-.323.323a.2.2,0,0,0,0,.277Zm.856-.579,0,0s0,0,0,0l0,0Zm.3-1.8-.227-.227.27-.27c-.016.167-.023.325-.043.5ZM24.277,5.126c1.3-3.221,2.376-1.337,3.953-2.613a3.552,3.552,0,0,1,3.579-.439c2.12.881,3.148,3.217,3.262,5.645-1.356.752-4.366-.246-6.053-1.37.162-.635.409-2.114-.27-2.059a.393.393,0,0,0-.361.422,4.511,4.511,0,0,1-4.794,4.841,10.309,10.309,0,0,1,.686-4.427Zm1.077,9.765a10.39,10.39,0,0,1-1.7-4.549c.071,0,.142.012.214.012a5.27,5.27,0,0,0,4.887-3.243c1.679,1.075,4.576,2.079,6.316,1.469,0,.162-.006.324-.016.493-.018.009-.04.008-.055.023l-.542.542-.159-.16a.2.2,0,0,0-.278.278l.877.876h0q-.062.436-.14.841a.185.185,0,0,0-.21.028l-.145.145-.482-.482.362-.362a.2.2,0,0,0-.277-.278l-.362.362-.105-.105a.2.2,0,0,0-.277.278l.105.105-.866.866a.2.2,0,0,0,0,.277.184.184,0,0,0,.09.038.188.188,0,0,0,.018.234l1.3,1.3a.182.182,0,0,0,.105.043,7.393,7.393,0,0,1-.64,1.146l-.324-.325.567-.567a.2.2,0,1,0-.277-.277l-.567.567-.211-.211.676-.676a.2.2,0,1,0-.278-.277l-.676.676-.594-.594a.2.2,0,0,0-.278.278l.594.594-1,1-.591-.591.677-.677a.2.2,0,0,0-.278-.277l-.677.677-.187-.187a.2.2,0,0,0-.278.278l.187.187-.835.835-.268-.269a.2.2,0,1,0-.278.278l.269.269-.4.4-.458-.458a.2.2,0,0,0-.278.278l.458.458-.51.51a4.693,4.693,0,0,1-.508-.306h0a6.929,6.929,0,0,1-1.7-1.773Zm-3.263,5.526c1.834-.47,3.927-.656,4.914-2.851a4.75,4.75,0,0,0,4.95-.1c.945,2.191,3.814,1.869,5.445,2.386a4.9,4.9,0,0,1,3.211,3.739l-.76-.76.062-.062a.2.2,0,0,0-.278-.278l-.062.062-.263-.264a.2.2,0,0,0-.278.278l.263.263-.835.835a.173.173,0,0,0-.232.232l-.068.068a.2.2,0,1,0,.278.278l.046-.046.594.594-.93.93-1-1,.542-.542a.2.2,0,1,0-.278-.277l-.542.542-.079-.079a.2.2,0,0,0-.278.278l.079.079-.846.846-.846-.846.863-.864a.2.2,0,0,0-.278-.278l-.864.864-.012-.012a.2.2,0,1,0-.278.278l.012.012-.511.511-.3-.3a.2.2,0,1,0-.278.278l.3.3-1.2,1.2-.578-.578,1.713-1.713a.2.2,0,0,0-.278-.277L31.5,25.861l-.146-.146a.2.2,0,0,0-.278.278l.146.146-.829.829-.54-.547,1.211-1.211a.2.2,0,1,0-.277-.278l-1.241,1.241a.174.174,0,0,0-.218.218l-.724.724-.561-.561.8-.8a.2.2,0,1,0-.278-.278l-1.689,1.689-.415-.415a.191.191,0,0,0-.112-.046l.774-.774a.2.2,0,1,0-.278-.277l-1.529,1.529-.4-.4a.2.2,0,0,0-.278.278l.4.4-.012.012c-1.058.015-2.12.012-3.174-.035-5.363-.219-4.487-3.708-3.408-5.018a6.635,6.635,0,0,1,3.646-2Z" transform="translate(-3.015)" fill="#ff3e4a"/>
    <path id="Path_8073" data-name="Path 8073" d="M42.19,59.028c1.865.083,3.381.03,13.047-.29a2.266,2.266,0,0,0,2.557-2.116,4.592,4.592,0,0,0-3.05-4.976c-1.37-.434-3.388-.184-3.9-1.566a5.039,5.039,0,0,0,.9-.9,8.747,8.747,0,0,0,1.542-4.377,9.417,9.417,0,0,0-.229-4.069c-.922-2.947-3.727-4.175-5.817-3-.617.346-.46.546-1.188.561-.786.016-1.77.109-2.57,2.088a9.146,9.146,0,0,0,.926,8.4,6.356,6.356,0,0,0,1.265,1.381c-.632,1.436-1.9,1.52-3.442,1.913A5.912,5.912,0,0,0,38.978,53.9c-1.2,1.461-1.66,4.928,3.212,5.127Zm1.9-.761c-.009-.022-.009-.046-.027-.064l-.168-.168.53-.53a.189.189,0,0,0,.014.244l.516.516c-.289.006-.576,0-.866,0Zm1.876-.38.344.344c-.234.007-.47.011-.706.017Zm1.093.325.31-.31.291.291-.6.019Zm3.366-1.129.8.8-.112.112a.185.185,0,0,0-.037.09l-1.283.041a.188.188,0,0,0-.019-.233l-.079-.079ZM52.969,58c.016.016.039.015.059.024l-1.432.046,1.12-1.121.512.513-.26.26A.2.2,0,0,0,52.969,58Zm-3.507.138-.092,0,.048-.048Zm5.752-.183-2.013.064a2.015,2.015,0,0,0,.306-.279l.123.123a.2.2,0,1,0,.278-.278l-.123-.123.841-.841.479.479-.394.394a.2.2,0,1,0,.278.278l.394-.394.518.518A4.215,4.215,0,0,1,55.214,57.953Zm1.8-1.46a1.809,1.809,0,0,1-.721,1.256c-.006-.007,0-.017-.01-.024l-.628-.628.784-.784c.016-.016.015-.038.024-.058l.06.06a.2.2,0,0,0,.278-.278l-.559-.559.589-.589c.02-.02.02-.048.03-.072A3.518,3.518,0,0,1,57.019,56.493Zm-6.852-6.87a3.343,3.343,0,0,1-2.444.652.193.193,0,0,0,.12-.049.2.2,0,0,0,0-.278l-.319-.319.3-.3.595.595a.139.139,0,0,0,.14.14l.073.073a.2.2,0,0,0,.278-.278l0,0,.54-.54.245.245a.2.2,0,0,0,.277-.278l-.245-.245.856-.856.5.5c.014.014.034.012.05.021v0a4.216,4.216,0,0,1-.955.918Zm-2.555.644a3.019,3.019,0,0,1-.549-.177l.183-.183.319.319a.191.191,0,0,0,.112.046c-.021,0-.043,0-.064-.006Zm.486-1.212.54-.541.526.526-.54.54Zm3.936-3.17-.363.364a.2.2,0,0,0,.278.278l.285-.285a8.528,8.528,0,0,1-.3.969l-.779-.779.712-.713Zm-7.819-5.2c.721-1.784,1.392-1.564,2.178-1.607.64-.031.744-.375,1.238-.651,1.627-.919,3.9.044,4.683,2.547a6.718,6.718,0,0,1,.292,1.685c-1.1.559-3.463-.314-4.621-1.075a4.226,4.226,0,0,0,.11-1.311.4.4,0,0,0-.422-.361.393.393,0,0,0-.361.422,3.471,3.471,0,0,1-3.639,3.737A8.08,8.08,0,0,1,44.214,40.685Zm.845,7.656a8.121,8.121,0,0,1-1.316-3.469c.024,0,.049,0,.072,0a4.253,4.253,0,0,0,3.906-2.531c1.3.812,3.5,1.567,4.883,1.158-.013.38-.041.776-.093,1.206-.04.325-.09.629-.146.922-.008,0-.013.008-.021.009l-.221-.221a.174.174,0,0,0-.237-.237l-.34-.341a.2.2,0,1,0-.278.278l.321.321-.728.728a.178.178,0,0,0-.247.247l-.408.408a.2.2,0,0,0,.278.278l.392-.392.824.824a.179.179,0,0,0,.087.036,5.954,5.954,0,0,1-.447.827l-.488-.488.207-.207a.2.2,0,0,0-.278-.278l-.207.207-.75-.75a.2.2,0,1,0-.277.278l.75.75-.856.856-.526-.526.445-.445a.2.2,0,0,0-.278-.278l-.445.445-.191-.191a.2.2,0,0,0-.278.278l.191.191-.54.541-.205-.205a.2.2,0,0,0-.278.278l.205.205-.3.3-.378-.378a.2.2,0,0,0-.278.278l.378.378L46.7,49.9a3.443,3.443,0,0,1-.312-.178,5.436,5.436,0,0,1-1.324-1.384Zm-2.631,4.5c1.321-.339,3.109-.508,3.908-2.222a3.857,3.857,0,0,0,3.848-.077c.84,1.708,3.037,1.446,4.322,1.853a3.749,3.749,0,0,1,2.29,2.2.19.19,0,0,0-.24.016l-.589.589-.315-.315a.2.2,0,0,0-.278.278l.315.315-.042.042a.2.2,0,0,0,.278.278l.042-.042.255.255c-.02.009-.042.008-.058.024l-.784.784-.479-.479.613-.612a.2.2,0,0,0-.278-.278l-.612.612-.3-.3a.2.2,0,0,0-.278.278l.3.3-.841.841-.512-.513.8-.8a.2.2,0,1,0-.278-.277l-.794.8-.119-.119a.2.2,0,1,0-.278.278l.119.119-.935.936-.8-.8.482-.482a.2.2,0,1,0-.278-.277l-.493.493a.181.181,0,0,0-.254.254l-.743.743-.57-.57a.2.2,0,1,0-.278.278l.57.57-.255.255a.184.184,0,0,0-.036.086l-.757.024a.187.187,0,0,0-.049-.159l-.4-.4,1.176-1.176a.2.2,0,0,0-.278-.278l-1.176,1.176-.16-.16a.2.2,0,0,0-.278.278l.16.16-.416.416-.431-.431.716-.716a.2.2,0,1,0-.278-.278l-.735.735a.176.176,0,0,0-.241.241l-.434.434-.554-.555a.189.189,0,0,0-.244-.014l.781-.78a.2.2,0,0,0-.278-.278l-1.359,1.359-.16-.16a.2.2,0,1,0-.278.278l.16.16-.22.22c-.3-.006-.6,0-.9-.011-4.687-.195-4.153-4.3.207-5.4Z" transform="translate(-7.584 -7.778)" fill="#ff3e4a"/>
    <path id="Path_8074" data-name="Path 8074" d="M3.585,53.905c-1.2,1.46-1.66,4.926,3.212,5.125,1.679.075,2.62.053,13.046-.29A2.266,2.266,0,0,0,22.4,56.625a4.592,4.592,0,0,0-3.05-4.976c-1.355-.429-3.387-.184-3.9-1.566,2.542-2,2.983-6.928,2.217-9.344a4.974,4.974,0,0,0-2.686-3.149,3.53,3.53,0,0,0-3.548.45c-.854.69-2.182-.515-3.342,2.353a9.146,9.146,0,0,0,.926,8.4,6.393,6.393,0,0,0,1.265,1.381c-1.076,2.447-4.546,1.122-6.7,3.735Zm8.2,4.306-.082,0,.53-.53.5.5Zm3.286-1.569c.009.017.007.039.022.053l.71.711-.647.647c-.014.014-.013.035-.022.052l-.262.009c-.005-.007,0-.017-.009-.023l-.62-.62Zm2.085-.032.828.828-.595.595-.391.013-.64-.64Zm2.394,1.25a.188.188,0,0,0-.044.105l-.425.013-.541-.541.893-.893.717.717ZM18.538,58l-.58.018.3-.3Zm-2.082.066-.783.025.4-.4Zm-2.113.067-.789.025.407-.407Zm4.77-5.731a3.782,3.782,0,0,1,2.512,4.1h0a1.46,1.46,0,0,1-1.613,1.452l.447-.447s.007,0,.012,0a.2.2,0,0,0,.139-.057.188.188,0,0,0,.053-.15l.49-.49a.2.2,0,0,0-.278-.278l-.453.453-.717-.717.718-.718a.2.2,0,0,0-.278-.277l-.718.718-.438-.438a.2.2,0,0,0-.278.278l.438.438-.893.893-.828-.828,1.144-1.144a.2.2,0,1,0-.278-.278l-2.218,2.218-.711-.711c-.015-.015-.035-.013-.053-.022l.572-.572a.2.2,0,0,0-.277-.278l-1.647,1.647-.454-.454a.2.2,0,0,0-.278.278l.454.454-.576.576c-.009-.023-.009-.049-.028-.068l-.572-.573.628-.628a.2.2,0,1,0-.277-.278l-.628.628L12,56.9a.2.2,0,0,0-.278.278l.229.229-.492.492-.71-.711a.2.2,0,0,0-.278.277l.71.711-.053.053q-.689.021-1.389.034l-.215-.215,1.9-1.9a.2.2,0,0,0-.278-.278l-1.9,1.905-.454-.454a.2.2,0,0,0-.277.278l.454.454-.223.223c-.64,0-1.282,0-1.917-.024-4.084-.167-3.514-2.779-2.639-3.841,1.917-2.327,5.467-1.05,6.752-3.782a3.831,3.831,0,0,0,3.848-.078c.844,1.717,3.035,1.446,4.322,1.854Zm-6.32-2.527-.547-.546.448-.448.889.889a.179.179,0,0,0,.3-.048c.005,0,.013,0,.018-.007l.648-.648.412.412c-.063.049-.12.106-.185.151a3.134,3.134,0,0,1-3.238.411l.434-.434.547.546a.2.2,0,0,0,.277-.277Zm1.6-2.692.741.741-.586.586-.741-.741Zm-.123,1.605-.556.556-.741-.741.556-.556Zm1,.44-.44-.44.586-.586.293.293a.2.2,0,0,0,.137.057,3.721,3.721,0,0,1-.577.676Zm1.626-3.189c-.066.291-.142.564-.226.823l-.42-.42.525-.525Zm-8.07-5.348c.605-1.5,1.169-1.582,1.858-1.6,1.449-.032,1.2-1,2.885-1a3.767,3.767,0,0,1,3.356,2.883,6.718,6.718,0,0,1,.292,1.685,2.381,2.381,0,0,1-1.41.13,7.647,7.647,0,0,1-3.211-1.2,4.25,4.25,0,0,0,.11-1.311.393.393,0,0,0-.783.061,3.47,3.47,0,0,1-3.639,3.737,8.081,8.081,0,0,1,.541-3.386Zm.846,7.656a8.124,8.124,0,0,1-1.316-3.47c.024,0,.048,0,.072,0a4.253,4.253,0,0,0,3.907-2.531,8.411,8.411,0,0,0,3.364,1.221,3.5,3.5,0,0,0,1.519-.063c-.024.688-.094,1.206-.094,1.206-.021.174-.047.339-.073.5-.136-.028-.178.044-.277.143l-.37-.37a.2.2,0,0,0-.278.278l.37.37-.525.525-.216-.216a.2.2,0,0,0-.278.278l1.045,1.045a6.183,6.183,0,0,1-.5,1.025.175.175,0,0,0-.033-.079l-.293-.293L15.7,47.9a.2.2,0,1,0-.278-.277l-.016.016L14.6,46.83a.186.186,0,0,0-.038-.093.2.2,0,0,0-.278,0l-.753.753-.309-.309a.2.2,0,1,0-.278.278l.309.309-.556.556-.463-.463a.2.2,0,0,0-.278.278l.463.463-.448.448-.416-.416a.2.2,0,0,0-.278.278l.416.416-.51.51c-.063-.039-.129-.065-.191-.108a5.47,5.47,0,0,1-1.321-1.385Z" transform="translate(0 -7.78)" fill="#ff3e4a"/>
    <path id="Path_8075" data-name="Path 8075" d="M27.2,45.974a.393.393,0,1,0,.567.544l3.665-3.824c.773.8,2.7,2.657,3.933,3.836a.393.393,0,0,0,.543-.568C34.525,44.638,32.333,42.519,31.85,42a25.192,25.192,0,0,0,.242-5.59.393.393,0,0,0-.783.057,24.422,24.422,0,0,1-.24,5.472Z" transform="translate(-5.208 -7.509)" fill="#ff3e4a"/>
    <path id="Path_8076" data-name="Path 8076" d="M19.957,30.592a.2.2,0,0,0,.135-.243c-.807-2.847,3.922-3.977,6.969-4.039a.2.2,0,0,0,.193-.2.2.2,0,0,0-.2-.193c-3.456.069-8.231,1.389-7.339,4.539a.2.2,0,0,0,.244.135Z" transform="translate(-3.603 -5.34)" fill="#ff3e4a"/>
    <path id="Path_8077" data-name="Path 8077" d="M23.791,59.388a.2.2,0,0,0,.139-.057l.343-.343,1.3,1.3a.2.2,0,1,0,.278-.278l-1.3-1.3.393-.393a.2.2,0,1,0-.278-.277l-.424.424a.174.174,0,0,0-.216.216l-.373.373a.2.2,0,0,0,.138.336Z" transform="translate(-4.458 -12.21)" fill="#ff3e4a"/>
  </g>
</svg>
